g fbx_Gusin_skin13_high_weapon003
v 0.00912199914 -0.00542599941 0.341399997
v 6.99996917E-06 0.000297000399 0.333508968
v 6.99996917E-06 -0.0054250001 0.339706987
v 0.0115059996 0.000297000399 0.33564499
v 0.0211469997 0.000297000399 0.34226501
v 0.0167639982 -0.00542599941 0.346647978
v 0.0220120028 -0.00542599941 0.354290009
v 0.0277669989 0.000297000399 0.351906002
v 0.0299030002 0.000297000399 0.363404989
v 0.0237050001 -0.00542599941 0.363404989
v 0.0220120028 -0.00542599941 0.37251997
v 0.0277669989 0.000297000399 0.374903977
v 0.0211469997 0.000297000399 0.384544969
v 0.0167639982 -0.00542599941 0.380162001
v 0.00912199914 -0.00542599941 0.385409981
v 0.0115059996 0.000297000399 0.391164988
v 6.99996917E-06 0.000297000399 0.39330101
v 6.99996917E-06 -0.0054250001 0.387102991
v -0.0091079995 -0.00542599941 0.385409981
v -0.0114920009 0.000297000399 0.391164988
v -0.021133 0.000297000399 0.384544969
v -0.0167499986 -0.00542599941 0.380162001
v -0.0219979994 -0.00542599941 0.37251997
v -0.0277529992 0.000297000399 0.374903977
v -0.0298889987 0.000297000399 0.363404989
v -0.0236910004 -0.0054250001 0.363404989
v -0.0219979994 -0.00542599941 0.354290009
v -0.0277529992 0.000297000399 0.351906002
v -0.021133 0.000297000399 0.34226501
v -0.0167499986 -0.00542599941 0.346647978
v -0.0091079995 -0.00542599941 0.341399997
v -0.0114920009 0.000297000399 0.33564499
v 6.99996917E-06 0.000297000399 0.333508968
v 6.99996917E-06 -0.0054250001 0.339706987
v -0.00668099988 0.000297000399 0.347259998
v 6.99996917E-06 0.000297000399 0.345908016
v 6.99996917E-06 -0.0054250001 0.339706987
v -0.0091079995 -0.00542599941 0.341399997
v -0.0167499986 -0.00542599941 0.346647978
v -0.0123650003 0.000297000399 0.351032972
v -0.0161380004 0.000297000399 0.35671699
v -0.0219979994 -0.00542599941 0.354290009
v -0.0236910004 -0.0054250001 0.363404989
v -0.0174899995 0.000297000399 0.363404989
v -0.0161380004 0.000297000399 0.370092988
v -0.0219979994 -0.00542599941 0.37251997
v -0.0167499986 -0.00542599941 0.380162001
v -0.0123650003 0.000297000399 0.375777006
v -0.00668099988 0.000297000399 0.37955001
v -0.0091079995 -0.00542599941 0.385409981
v 6.99996917E-06 -0.0054250001 0.387102991
v 6.99996917E-06 0.000297000399 0.380901963
v 0.00669499859 0.000297000399 0.37955001
v 0.00912199914 -0.00542599941 0.385409981
v 0.0167639982 -0.00542599941 0.380162001
v 0.012379 0.000297000399 0.375777006
v 0.0161520001 0.000297000399 0.370092988
v 0.0220120028 -0.00542599941 0.37251997
v 0.0237050001 -0.00542599941 0.363404989
v 0.017504001 0.000297000399 0.363404989
v 0.0161520001 0.000297000399 0.35671699
v 0.0220120028 -0.00542599941 0.354290009
v 0.0167639982 -0.00542599941 0.346647978
v 0.012379 0.000297000399 0.351032972
v 0.00669499859 0.000297000399 0.347259998
v 0.00912199914 -0.00542599941 0.341399997
v 6.99996917E-06 -0.0054250001 0.339706987
v 6.99996917E-06 0.000297000399 0.345908016
v 0.00912199914 0.00602000067 0.341399997
v 6.99996917E-06 0.0060190009 0.339706987
v 6.99996917E-06 0.000297000399 0.333508968
v 0.0115059996 0.000297000399 0.33564499
v 0.0211469997 0.000297000399 0.34226501
v 0.0167639982 0.00602000067 0.346647978
v 0.0220120028 0.00602000067 0.354290009
v 0.0277669989 0.000297000399 0.351906002
v 0.0299030002 0.000297000399 0.363404989
v 0.0237050001 0.00602000067 0.363404989
v 0.0220120028 0.00602000067 0.37251997
v 0.0277669989 0.000297000399 0.374903977
v 0.0211469997 0.000297000399 0.384544969
v 0.0167639982 0.00602000067 0.380162001
v 0.00912199914 0.00602000067 0.385409981
v 0.0115059996 0.000297000399 0.391164988
v 6.99996917E-06 0.000297000399 0.39330101
v 6.99996917E-06 0.0060190009 0.387102991
v -0.0091079995 0.00602000067 0.385409981
v -0.0114920009 0.000297000399 0.391164988
v -0.021133 0.000297000399 0.384544969
v -0.0167499986 0.00602000067 0.380162001
v -0.0219979994 0.00602000067 0.37251997
v -0.0277529992 0.000297000399 0.374903977
v -0.0298889987 0.000297000399 0.363404989
v -0.0236910004 0.0060190009 0.363404989
v -0.0219979994 0.00602000067 0.354290009
v -0.0277529992 0.000297000399 0.351906002
v -0.021133 0.000297000399 0.34226501
v -0.0167499986 0.00602000067 0.346647978
v -0.0091079995 0.00602000067 0.341399997
v -0.0114920009 0.000297000399 0.33564499
v 6.99996917E-06 0.000297000399 0.333508968
v 6.99996917E-06 0.0060190009 0.339706987
v -0.00668099988 0.000297000399 0.347259998
v 6.99996917E-06 0.0060190009 0.339706987
v 6.99996917E-06 0.000297000399 0.345908016
v -0.0091079995 0.00602000067 0.341399997
v -0.0167499986 0.00602000067 0.346647978
v -0.0123650003 0.000297000399 0.351032972
v -0.0161380004 0.000297000399 0.35671699
v -0.0219979994 0.00602000067 0.354290009
v -0.0236910004 0.0060190009 0.363404989
v -0.0174899995 0.000297000399 0.363404989
v -0.0161380004 0.000297000399 0.370092988
v -0.0219979994 0.00602000067 0.37251997
v -0.0167499986 0.00602000067 0.380162001
v -0.0123650003 0.000297000399 0.375777006
v -0.00668099988 0.000297000399 0.37955001
v -0.0091079995 0.00602000067 0.385409981
v 6.99996917E-06 0.0060190009 0.387102991
v 6.99996917E-06 0.000297000399 0.380901963
v 0.00669499859 0.000297000399 0.37955001
v 0.00912199914 0.00602000067 0.385409981
v 0.0167639982 0.00602000067 0.380162001
v 0.012379 0.000297000399 0.375777006
v 0.0161520001 0.000297000399 0.370092988
v 0.0220120028 0.00602000067 0.37251997
v 0.0237050001 0.00602000067 0.363404989
v 0.017504001 0.000297000399 0.363404989
v 0.0161520001 0.000297000399 0.35671699
v 0.0220120028 0.00602000067 0.354290009
v 0.0167639982 0.00602000067 0.346647978
v 0.012379 0.000297000399 0.351032972
v 0.00669499859 0.000297000399 0.347259998
v 0.00912199914 0.00602000067 0.341399997
v 6.99996917E-06 0.0060190009 0.339706987
v 6.99996917E-06 0.000297000399 0.345908016
v -0.0157599989 0.000297000399 0.199925989
v -0.0111429999 -0.00936999917 0.199925989
v 6.99996917E-06 0.000297000399 0.199925989
v 6.99996917E-06 -0.0111099994 0.199925989
v 0.0111570014 -0.00936999917 0.199925989
v 0.0157740004 0.000297000399 0.199925989
v -0.0111429999 -0.00937099941 0.325194001
v -0.0157599989 0.000297000399 0.325194001
v 6.99996917E-06 0.000297000399 0.325194001
v 6.99996917E-06 -0.0111109996 0.325194001
v 0.0111570014 -0.00937099941 0.325194001
v 0.0157740004 0.000297000399 0.325194001
v -0.0124129998 -0.0104700001 0.203528002
v -0.0111429999 -0.00936999917 0.199925989
v -0.0157599989 0.000297000399 0.199925989
v -0.0175560005 0.000297000399 0.203528002
v -0.0124129998 -0.0104709994 0.32159099
v -0.0175560005 0.000297000399 0.321591973
v -0.0157599989 0.000297000399 0.325194001
v -0.0111429999 -0.00937099941 0.325194001
v 0.0157740004 0.000297000399 0.199925989
v 0.0111570014 -0.00936999917 0.199925989
v 0.0124270022 -0.0104700001 0.203528002
v 0.0175700001 0.000297000399 0.203528002
v 0.0175700001 0.000297000399 0.32159099
v 0.0124270022 -0.0104709994 0.32159099
v 0.0157740004 0.000297000399 0.325194001
v 0.0111570014 -0.00937099941 0.325194001
v -0.0157599989 0.000297000399 0.199925989
v 6.99996917E-06 0.000297000399 0.199925989
v -0.0111429999 0.00996400043 0.199925989
v 6.99996917E-06 0.0117039997 0.199925989
v 0.0111570014 0.00996400043 0.199925989
v 0.0157740004 0.000297000399 0.199925989
v -0.0111429999 0.00996500067 0.325194001
v 6.99996917E-06 0.000297000399 0.325194001
v -0.0157599989 0.000297000399 0.325194001
v 6.99996917E-06 0.011705 0.325194001
v 0.0111570014 0.00996500067 0.325194001
v 0.0157740004 0.000297000399 0.325194001
v -0.0124129998 0.0110640014 0.203528002
v -0.0157599989 0.000297000399 0.199925989
v -0.0111429999 0.00996400043 0.199925989
v -0.0175560005 0.000297000399 0.203528002
v -0.0124129998 0.0110649997 0.32159099
v -0.0175560005 0.000297000399 0.321591973
v -0.0157599989 0.000297000399 0.325194001
v -0.0111429999 0.00996500067 0.325194001
v 0.0157740004 0.000297000399 0.199925989
v 0.0124270022 0.0110640014 0.203528002
v 0.0111570014 0.00996400043 0.199925989
v 0.0175700001 0.000297000399 0.203528002
v 0.0175700001 0.000297000399 0.32159099
v 0.0124270022 0.0110649997 0.32159099
v 0.0157740004 0.000297000399 0.325194001
v 0.0111570014 0.00996500067 0.325194001
v -0.0309019983 0.000296999991 0.14730899
v -0.0362229981 -0.0131999999 0.163033009
v -0.013358999 -0.0144459996 0.167847991
v -0.0489480011 -0.0117349988 0.157587007
v -0.0459280014 0.000296999991 0.14423801
v -0.0615759976 -0.0083999997 0.150099993
v -0.0596119948 0.000296999991 0.139769003
v -0.0714249983 -0.00440800004 0.140806004
v -0.0707110018 0.000296999991 0.135092005
v -0.0824330002 0.000296999991 0.129820004
v 0.0309159979 0.000296999991 0.14730899
v 0.0133729978 -0.0144459996 0.167847991
v 0.0358160026 -0.0128589999 0.162652999
v 0.0486319996 -0.0107089998 0.157500982
v 0.045942001 0.000296999991 0.14423801
v 0.0614209957 -0.00767999981 0.150256991
v 0.0596260019 0.000296999991 0.139769003
v 0.071325995 -0.00419599982 0.141534999
v 0.070724003 0.000296999991 0.135101005
v 0.0824330002 0.000296999991 0.129868016
v 0.071325995 -0.00419599982 0.141534999
v 0.0735279992 -0.00266700005 0.148861989
v 0.0824330002 0.000296999991 0.129868016
v 0.0614209957 -0.00767999981 0.150256991
v 0.0635729954 -0.0053469995 0.163539991
v 0.0486319996 -0.0107089998 0.157500982
v 0.0516319983 -0.00715099974 0.174629986
v 0.0358160026 -0.0128589999 0.162652999
v 0.0393900014 -0.00852099992 0.182843
v 0.0133729978 -0.0144459996 0.167847991
v 0.0198339988 -0.00982899964 0.190311998
v 6.99996917E-06 -0.0107029993 0.193048
v 6.99996917E-06 -0.014765 0.169694006
v 6.99996917E-06 -0.00972699933 0.109141998
v 0.0101520009 -0.00931499992 0.10845501
v -0.013358999 -0.0144459996 0.167847991
v -0.0198199991 -0.00982899964 0.190311998
v -0.0393760018 -0.00852099992 0.182843
v -0.0362229981 -0.0131999999 0.163033009
v -0.0516179986 -0.00715099974 0.174629986
v -0.0489480011 -0.0117349988 0.157587007
v -0.0635589957 -0.0053469995 0.163539991
v -0.0615759976 -0.0083999997 0.150099993
v -0.0735139996 -0.00266700005 0.148861989
v -0.0714249983 -0.00440800004 0.140806004
v -0.0824330002 0.000296999991 0.129820004
v -0.0101380004 -0.00931499992 0.10845501
v 6.99996917E-06 -0.00473899953 0.0547069907
v 0.00537600042 -0.00453299982 0.0542639904
v -0.00536200032 -0.00453299982 0.0542639904
v 6.99996917E-06 0.000296999991 0
v -0.0309019983 0.000296999991 0.14730899
v -0.013358999 -0.0144459996 0.167847991
v -0.0101380004 -0.00931499992 0.10845501
v -0.0237299986 0.000296999991 0.107492998
v -0.0119329998 0.000296999991 0.0540710054
v -0.00536200032 -0.00453299982 0.0542639904
v 6.99996917E-06 0.000296999991 0
v 0.00537600042 -0.00453299982 0.0542639904
v 0.0119469995 0.000296999991 0.0540710054
v 6.99996917E-06 0.000296999991 0
v 0.0101520009 -0.00931499992 0.10845501
v 0.0237440001 0.000296999991 0.107492998
v 0.0309159979 0.000296999991 0.14730899
v 0.0133729978 -0.0144459996 0.167847991
v -0.0309019983 0.000296999991 0.14730899
v -0.013359 0.01504 0.167847991
v -0.0362229981 0.0137940012 0.163033009
v -0.0489480011 0.012329 0.157587007
v -0.0459280014 0.000296999991 0.14423801
v -0.0615759939 0.0089939991 0.150099993
v -0.0596119948 0.000296999991 0.139769003
v -0.0714249983 0.00500200037 0.140806004
v -0.0707110018 0.000296999991 0.135092005
v -0.0824330002 0.000296999991 0.129820004
v 0.0309159979 0.000296999991 0.14730899
v 0.0358160026 0.0134530002 0.162652999
v 0.0133729978 0.01504 0.167847991
v 0.0486319996 0.0113030002 0.157500982
v 0.045942001 0.000296999991 0.14423801
v 0.0614209957 0.00827399921 0.150256991
v 0.0596260019 0.000296999991 0.139769003
v 0.071325995 0.00479000015 0.141534999
v 0.070724003 0.000296999991 0.135101005
v 0.0824330002 0.000296999991 0.129868016
v 0.071325995 0.00479000015 0.141534999
v 0.0824330002 0.000296999991 0.129868016
v 0.0735279992 0.00326150004 0.148861989
v 0.0614209957 0.00827399921 0.150256991
v 0.0635729954 0.00594099984 0.163539991
v 0.0486319996 0.0113030002 0.157500982
v 0.0516319983 0.00774500007 0.174629986
v 0.0358160026 0.0134530002 0.162652999
v 0.0393900014 0.00911549944 0.182843
v 0.0133729978 0.01504 0.167847991
v 0.0198339988 0.010423 0.190311998
v 6.99996917E-06 0.0112969996 0.193048
v 6.99996917E-06 0.0153590012 0.169694006
v 6.99996917E-06 0.0103210006 0.109141998
v 0.0101520009 0.00990899932 0.10845501
v -0.013359 0.01504 0.167847991
v -0.019820001 0.010423 0.190311998
v -0.0393760018 0.00911549944 0.182843
v -0.0362229981 0.0137940012 0.163033009
v -0.0516179949 0.00774500007 0.174629986
v -0.0489480011 0.012329 0.157587007
v -0.0635589957 0.00594099984 0.163539991
v -0.0615759939 0.0089939991 0.150099993
v -0.0735139921 0.00326150004 0.148861989
v -0.0714249983 0.00500200037 0.140806004
v -0.0824330002 0.000296999991 0.129820004
v -0.0101379985 0.00990899932 0.10845501
v 6.99996917E-06 0.00533299986 0.0547069907
v -0.00536200032 0.00512700016 0.0542639904
v 6.99996917E-06 0.000296999991 0
v 0.00537600042 0.00512700016 0.0542639904
v -0.0309019983 0.000296999991 0.14730899
v -0.0101379985 0.00990899932 0.10845501
v -0.013359 0.01504 0.167847991
v -0.0237299986 0.000296999991 0.107492998
v -0.0119329998 0.000296999991 0.0540710054
v -0.00536200032 0.00512700016 0.0542639904
v 6.99996917E-06 0.000296999991 0
v 0.00537600042 0.00512700016 0.0542639904
v 6.99996917E-06 0.000296999991 0
v 0.0119469995 0.000296999991 0.0540710054
v 0.0101520009 0.00990899932 0.10845501
v 0.0237440001 0.000296999991 0.107492998
v 0.0309159979 0.000296999991 0.14730899
v 0.0133729978 0.01504 0.167847991
v 0.0198339988 -0.00982899964 0.190311998
v 6.99996917E-06 -0.0107029993 0.193048
v 6.99996917E-06 0.0112969996 0.193048
v 0.0198339988 0.010423 0.190311998
v 0.0393900014 -0.00852099992 0.182843
v 0.0393900014 0.00911549944 0.182843
v 0.0516319983 -0.00715099974 0.174629986
v 0.0516319983 0.00774500007 0.174629986
v 0.0635729954 -0.0053469995 0.163539991
v 0.0635729954 0.00594099984 0.163539991
v 0.0735279992 -0.00266700005 0.148861989
v 0.0735279992 0.00326150004 0.148861989
v 0.0824330002 0.000296999991 0.129868016
v -0.0735139921 0.00326150004 0.148861989
v -0.0735139996 -0.00266700005 0.148861989
v -0.0824330002 0.000296999991 0.129820004
v -0.0635589957 0.00594099984 0.163539991
v -0.0635589957 -0.0053469995 0.163539991
v -0.0516179986 -0.00715099974 0.174629986
v -0.0516179949 0.00774500007 0.174629986
v -0.0393760018 -0.00852099992 0.182843
v -0.0393760018 0.00911549944 0.182843
v -0.0198199991 -0.00982899964 0.190311998
v -0.019820001 0.010423 0.190311998
v 6.99996917E-06 -0.0107029993 0.193048
v 6.99996917E-06 0.0112969996 0.193048
v -0.00485399971 -0.00456399983 0.190129995
v -0.00686399918 0.000297000399 0.190129995
v -0.00723999972 0.000297000399 0.193922997
v -0.00511899916 -0.00482900022 0.193922997
v -0 -0.00575200003 0.193922997
v -0.00485399971 -0.00456399983 0.190129995
v -0.00511899916 -0.00482900022 0.193922997
v -0 -0.00543799996 0.190129995
v 0.00485399971 -0.00456399983 0.190129995
v 0.00511899916 -0.00482900022 0.193922997
v 0.0091549987 -0.00886499975 0.198165998
v -0 -0.01107 0.200634986
v 0.00962500088 -0.00933500007 0.200634986
v -0 -0.0105149997 0.198165998
v 0.00768700102 -0.00739700021 0.197027996
v 0.0129459994 0.000297000399 0.198165998
v 0.0108709997 0.000297000399 0.197027996
v -0 -0.00878199935 0.197027996
v -0.00768700009 -0.00739700021 0.197027996
v -0.00915499963 -0.00886499975 0.198165998
v -0.00962499995 -0.00933500007 0.200634986
v -0.0108709997 0.000297000399 0.197027996
v -0.0129459994 0.000297000399 0.198165998
v 0.00686399918 0.000297000399 0.190129995
v 0.00485399971 -0.00456399983 0.190129995
v 0.00511899916 -0.00482900022 0.193922997
v 0.00723999972 0.000297000399 0.193922997
v -0.00962499995 -0.00933500007 0.200634986
v -0.00915499963 -0.00886499975 0.198165998
v -0.0129459994 0.000297000399 0.198165998
v -0.0136119993 0.000297000399 0.200634986
v 0.0136119984 0.000297000399 0.200634986
v 0.0129459994 0.000297000399 0.198165998
v 0.0091549987 -0.00886499975 0.198165998
v 0.00962500088 -0.00933500007 0.200634986
v 0.00749799935 -0.00720799947 0.194802999
v -0 -0.00878199935 0.197027996
v 0.00768700102 -0.00739700021 0.197027996
v -0 -0.00855899975 0.194802999
v -0.00749799935 -0.00720799947 0.194802999
v -0.00768700009 -0.00739700021 0.197027996
v -0.00768700009 -0.00739700021 0.197027996
v -0.00749799935 -0.00720799947 0.194802999
v -0.0106039997 0.000297000399 0.194802999
v -0.0108709997 0.000297000399 0.197027996
v 0.0108709997 0.000297000399 0.197027996
v 0.0106039997 0.000297000399 0.194802999
v 0.00749799935 -0.00720799947 0.194802999
v 0.00768700102 -0.00739700021 0.197027996
v -0.00749799935 -0.00720799947 0.194802999
v -0.00723999972 0.000297000399 0.193922997
v -0.0106039997 0.000297000399 0.194802999
v -0.00511899916 -0.00482900022 0.193922997
v -0 -0.00855899975 0.194802999
v -0 -0.00575200003 0.193922997
v 0.00511899916 -0.00482900022 0.193922997
v 0.00749799935 -0.00720799947 0.194802999
v 0.0106039997 0.000297000399 0.194802999
v 0.00723999972 0.000297000399 0.193922997
v -0.0100890007 0.000297000399 0.335512996
v -0 0.000297000399 0.335512996
v -0.00720999949 -0.00524999946 0.335483015
v -0 -0.00673600007 0.335460007
v 0.00720999949 -0.00524999946 0.335483015
v 0.0100890016 0.000297000399 0.335512996
v -0.00915300008 -0.00735699991 0.329595
v -0.0129459994 0.000297000399 0.329595
v -0.010844999 0.000297000399 0.330658972
v -0.00766800018 -0.00570599968 0.330693007
v -0 -0.00900399964 0.329595
v -0 -0.00707799941 0.33071202
v 0.00766799971 -0.00570599968 0.330693007
v 0.00915299915 -0.00735699991 0.329595
v 0.0108449981 0.000297000399 0.330658972
v 0.0129459994 0.000297000399 0.329595
v 0.00755000161 -0.00555799995 0.333591998
v 0.00766799971 -0.00570599968 0.330693007
v -0 -0.00707799941 0.33071202
v -0 -0.00715799956 0.333618999
v 0.00720999949 -0.00524999946 0.335483015
v -0 -0.00673600007 0.335460007
v -0.00720999949 -0.00524999946 0.335483015
v -0.00754999975 -0.00555799995 0.333591998
v -0.00766800018 -0.00570599968 0.330693007
v 0.00766799971 -0.00570599968 0.330693007
v 0.0106779998 0.000297000399 0.333577007
v 0.0108449981 0.000297000399 0.330658972
v 0.00755000161 -0.00555799995 0.333591998
v 0.0100890016 0.000297000399 0.335512996
v 0.00720999949 -0.00524999946 0.335483015
v -0.0100890007 0.000297000399 0.335512996
v -0.00720999949 -0.00524999946 0.335483015
v -0.00754999975 -0.00555799995 0.333591998
v -0.0106779998 0.000297000399 0.333577007
v -0.00766800018 -0.00570599968 0.330693007
v -0.010844999 0.000297000399 0.330658972
v -0.00979700033 -0.00726499967 0.323745996
v -0.0138559993 0.000297000399 0.323745996
v -0.0129459994 0.000297000399 0.329595
v -0.00915300008 -0.00735699991 0.329595
v -0 -0.00903099962 0.323745996
v -0.00979700033 -0.00726499967 0.323745996
v -0.00915300008 -0.00735699991 0.329595
v -0 -0.00900399964 0.329595
v 0.00915299915 -0.00735699991 0.329595
v 0.00979700033 -0.00726499967 0.323745996
v 0.0129459994 0.000297000399 0.329595
v 0.0138560003 0.000297000399 0.323745996
v 0.00979700033 -0.00726499967 0.323745996
v 0.00915299915 -0.00735699991 0.329595
v -0.00485399971 0.00515800109 0.190129995
v -0.00511899916 0.00542300101 0.193922997
v -0.00723999972 0.000297000399 0.193922997
v -0.00686399918 0.000297000399 0.190129995
v -0 0.00634600082 0.193922997
v -0.00511899916 0.00542300101 0.193922997
v -0.00485399971 0.00515800109 0.190129995
v -0 0.00603200076 0.190129995
v 0.00485399971 0.00515800109 0.190129995
v 0.00511899916 0.00542300101 0.193922997
v 0.0091549987 0.00945900101 0.198165998
v 0.00962500088 0.0099290004 0.200634986
v -0 0.0116640003 0.200634986
v -0 0.0111090001 0.198165998
v 0.00768700102 0.00799100101 0.197027996
v 0.0129459994 0.000297000399 0.198165998
v 0.0108709997 0.000297000399 0.197027996
v -0 0.00937600061 0.197027996
v -0.00768700009 0.00799100101 0.197027996
v -0.00915499963 0.00945900101 0.198165998
v -0.00962499995 0.0099290004 0.200634986
v -0.0108709997 0.000297000399 0.197027996
v -0.0129459994 0.000297000399 0.198165998
v 0.00686399918 0.000297000399 0.190129995
v 0.00723999972 0.000297000399 0.193922997
v 0.00511899916 0.00542300101 0.193922997
v 0.00485399971 0.00515800109 0.190129995
v -0.00962499995 0.0099290004 0.200634986
v -0.0136119993 0.000297000399 0.200634986
v -0.0129459994 0.000297000399 0.198165998
v -0.00915499963 0.00945900101 0.198165998
v 0.0136119984 0.000297000399 0.200634986
v 0.00962500088 0.0099290004 0.200634986
v 0.0091549987 0.00945900101 0.198165998
v 0.0129459994 0.000297000399 0.198165998
v 0.00749799935 0.00780200027 0.194802999
v 0.00768700102 0.00799100101 0.197027996
v -0 0.00937600061 0.197027996
v -0 0.00915300008 0.194802999
v -0.00749799935 0.00780200027 0.194802999
v -0.00768700009 0.00799100101 0.197027996
v -0.00768700009 0.00799100101 0.197027996
v -0.0108709997 0.000297000399 0.197027996
v -0.0106039997 0.000297000399 0.194802999
v -0.00749799935 0.00780200027 0.194802999
v 0.0108709997 0.000297000399 0.197027996
v 0.00768700102 0.00799100101 0.197027996
v 0.00749799935 0.00780200027 0.194802999
v 0.0106039997 0.000297000399 0.194802999
v -0.00749799935 0.00780200027 0.194802999
v -0.0106039997 0.000297000399 0.194802999
v -0.00723999972 0.000297000399 0.193922997
v -0.00511899916 0.00542300101 0.193922997
v -0 0.00915300008 0.194802999
v -0 0.00634600082 0.193922997
v 0.00511899916 0.00542300101 0.193922997
v 0.00749799935 0.00780200027 0.194802999
v 0.0106039997 0.000297000399 0.194802999
v 0.00723999972 0.000297000399 0.193922997
v -0.0100890007 0.000297000399 0.335512996
v -0.00720999949 0.00584400026 0.335483015
v -0 0.000297000399 0.335512996
v -0 0.00733000087 0.335460007
v 0.00720999949 0.00584400026 0.335483015
v 0.0100890016 0.000297000399 0.335512996
v -0.00915300008 0.00795100071 0.329595
v -0.010844999 0.000297000399 0.330658972
v -0.0129459994 0.000297000399 0.329595
v -0.00766800018 0.00630000047 0.330693007
v -0 0.00959799998 0.329595
v -0 0.00767200021 0.33071202
v 0.00766799971 0.00630000047 0.330693007
v 0.00915299915 0.00795100071 0.329595
v 0.0108449981 0.000297000399 0.330658972
v 0.0129459994 0.000297000399 0.329595
v 0.00755000161 0.00615200074 0.333591998
v -0 0.00767200021 0.33071202
v 0.00766799971 0.00630000047 0.330693007
v -0 0.00775200035 0.333618999
v 0.00720999949 0.00584400026 0.335483015
v -0 0.00733000087 0.335460007
v -0.00720999949 0.00584400026 0.335483015
v -0.00754999975 0.00615200074 0.333591998
v -0.00766800018 0.00630000047 0.330693007
v 0.00766799971 0.00630000047 0.330693007
v 0.0108449981 0.000297000399 0.330658972
v 0.0106779998 0.000297000399 0.333577007
v 0.00755000161 0.00615200074 0.333591998
v 0.0100890016 0.000297000399 0.335512996
v 0.00720999949 0.00584400026 0.335483015
v -0.0100890007 0.000297000399 0.335512996
v -0.00754999975 0.00615200074 0.333591998
v -0.00720999949 0.00584400026 0.335483015
v -0.0106779998 0.000297000399 0.333577007
v -0.00766800018 0.00630000047 0.330693007
v -0.010844999 0.000297000399 0.330658972
v -0.00979700033 0.007859 0.323745996
v -0.00915300008 0.00795100071 0.329595
v -0.0129459994 0.000297000399 0.329595
v -0.0138559993 0.000297000399 0.323745996
v -0 0.00962500088 0.323745996
v -0.00915300008 0.00795100071 0.329595
v -0.00979700033 0.007859 0.323745996
v -0 0.00959799998 0.329595
v 0.00915299915 0.00795100071 0.329595
v 0.00979700033 0.007859 0.323745996
v 0.0129459994 0.000297000399 0.329595
v 0.00915299915 0.00795100071 0.329595
v 0.00979700033 0.007859 0.323745996
v 0.0138560003 0.000297000399 0.323745996
v 6.99996917E-06 -0.0124080004 0.203528002
v 0.0124270022 -0.0104709994 0.32159099
v 0.0124270022 -0.0104700001 0.203528002
v 0.0111570014 -0.00936999917 0.199925989
v 6.99996917E-06 -0.0111099994 0.199925989
v -0.0111429999 -0.00936999917 0.199925989
v -0.0124129998 -0.0104700001 0.203528002
v 6.99996917E-06 -0.0124089997 0.32159099
v 0.0111570014 -0.00937099941 0.325194001
v -0.0124129998 -0.0104709994 0.32159099
v 6.99996917E-06 -0.0111109996 0.325194001
v -0.0111429999 -0.00937099941 0.325194001
v 6.99996917E-06 0.0130020007 0.203528002
v 0.0124270022 0.0110640014 0.203528002
v 0.0124270022 0.0110649997 0.32159099
v 0.0111570014 0.00996400043 0.199925989
v 6.99996917E-06 0.0117039997 0.199925989
v -0.0111429999 0.00996400043 0.199925989
v -0.0124129998 0.0110640014 0.203528002
v 6.99996917E-06 0.013003001 0.32159099
v 0.0111570014 0.00996500067 0.325194001
v -0.0124129998 0.0110649997 0.32159099
v 6.99996917E-06 0.011705 0.325194001
v -0.0111429999 0.00996500067 0.325194001
vt 0.690429688 0.562011719
vt 0.673339844 0.543945312
vt 0.673339844 0.562011719
vt 0.690429688 0.543945312
vt 0.707519531 0.543945312
vt 0.707519531 0.562011719
vt 0.724609375 0.562011719
vt 0.724609375 0.543945312
vt 0.741699219 0.543945312
vt 0.741699219 0.562011719
vt 0.758789062 0.562011719
vt 0.758789062 0.543945312
vt 0.775878906 0.543945312
vt 0.775878906 0.562011719
vt 0.79296875 0.562011719
vt 0.79296875 0.543945312
vt 0.810058594 0.543945312
vt 0.810058594 0.562011719
vt 0.827148438 0.562011719
vt 0.827148438 0.543945312
vt 0.844238281 0.543945312
vt 0.844238281 0.562011719
vt 0.861328125 0.562011719
vt 0.861328125 0.543945312
vt 0.878417969 0.543945312
vt 0.878417969 0.562011719
vt 0.895507812 0.562011719
vt 0.895507812 0.543945312
vt 0.912597656 0.543945312
vt 0.912597656 0.562011719
vt 0.9296875 0.562011719
vt 0.9296875 0.543945312
vt 0.946777344 0.543945312
vt 0.946777344 0.562011719
vt 0.9296875 0.580078125
vt 0.946777344 0.580078125
vt 0.946777344 0.562011719
vt 0.9296875 0.562011719
vt 0.912597656 0.562011719
vt 0.912597656 0.580078125
vt 0.895507812 0.580078125
vt 0.895507812 0.562011719
vt 0.878417969 0.562011719
vt 0.878417969 0.580078125
vt 0.861328125 0.580078125
vt 0.861328125 0.562011719
vt 0.844238281 0.562011719
vt 0.844238281 0.580078125
vt 0.827148438 0.580078125
vt 0.827148438 0.562011719
vt 0.810058594 0.562011719
vt 0.810058594 0.580078125
vt 0.79296875 0.580078125
vt 0.79296875 0.562011719
vt 0.775878906 0.562011719
vt 0.775878906 0.580078125
vt 0.758789062 0.580078125
vt 0.758789062 0.562011719
vt 0.741699219 0.562011719
vt 0.741699219 0.580078125
vt 0.724609375 0.580078125
vt 0.724609375 0.562011719
vt 0.707519531 0.562011719
vt 0.707519531 0.580078125
vt 0.690429688 0.580078125
vt 0.690429688 0.562011719
vt 0.673339844 0.562011719
vt 0.673339844 0.580078125
vt 1.69042969 0.562011719
vt 1.67285156 0.562011719
vt 1.67285156 0.543945312
vt 1.69042969 0.543945312
vt 1.70703125 0.543945312
vt 1.70703125 0.562011719
vt 1.72460938 0.562011719
vt 1.72460938 0.543945312
vt 1.74121094 0.543945312
vt 1.74121094 0.562011719
vt 1.75878906 0.562011719
vt 1.75878906 0.543945312
vt 1.77636719 0.543945312
vt 1.77539062 0.562011719
vt 1.79296875 0.562011719
vt 1.79296875 0.543945312
vt 1.80957031 0.543945312
vt 1.80957031 0.562011719
vt 1.82714844 0.562011719
vt 1.82714844 0.543945312
vt 1.84375 0.543945312
vt 1.84375 0.562011719
vt 1.86132812 0.562011719
vt 1.86132812 0.543945312
vt 1.87792969 0.543945312
vt 1.87792969 0.562011719
vt 1.89550781 0.562011719
vt 1.89550781 0.543945312
vt 1.91308594 0.543945312
vt 1.91308594 0.562011719
vt 1.9296875 0.562011719
vt 1.9296875 0.543945312
vt 1.94726562 0.543945312
vt 1.94726562 0.562011719
vt 1.9296875 0.580078125
vt 1.94726562 0.562011719
vt 1.94726562 0.580078125
vt 1.9296875 0.562011719
vt 1.91308594 0.562011719
vt 1.91308594 0.580078125
vt 1.89550781 0.580078125
vt 1.89550781 0.562011719
vt 1.87792969 0.562011719
vt 1.87792969 0.580078125
vt 1.86132812 0.580078125
vt 1.86132812 0.562011719
vt 1.84375 0.562011719
vt 1.84375 0.580078125
vt 1.82714844 0.580078125
vt 1.82714844 0.562011719
vt 1.80957031 0.562011719
vt 1.80957031 0.580078125
vt 1.79296875 0.580078125
vt 1.79296875 0.562011719
vt 1.77539062 0.562011719
vt 1.77539062 0.580078125
vt 1.75878906 0.580078125
vt 1.75878906 0.562011719
vt 1.74121094 0.562011719
vt 1.74121094 0.580078125
vt 1.72460938 0.580078125
vt 1.72460938 0.562011719
vt 1.70703125 0.562011719
vt 1.70703125 0.580078125
vt 1.69042969 0.580078125
vt 1.69042969 0.562011719
vt 1.67285156 0.562011719
vt 1.67285156 0.580078125
vt 0.853515625 0.345947266
vt 0.829589844 0.357421875
vt 0.853515625 0.384765625
vt 0.825195312 0.384765625
vt 0.829589844 0.412353516
vt 0.853515625 0.423583984
vt 0.845703125 0.287597656
vt 0.82421875 0.27734375
vt 0.82421875 0.312744141
vt 0.849609375 0.312744141
vt 0.845703125 0.337890625
vt 0.82421875 0.348144531
vt 0.691894531 0.243774414
vt 0.691894531 0.237304688
vt 0.671875 0.237304688
vt 0.671875 0.243774414
vt 0.691894531 0.443115234
vt 0.671875 0.443115234
vt 0.671875 0.449707031
vt 0.691894531 0.449707031
vt 0.754394531 0.237304688
vt 0.734375 0.237304688
vt 0.734375 0.243774414
vt 0.754394531 0.243774414
vt 0.754394531 0.443115234
vt 0.734375 0.443115234
vt 0.754394531 0.449707031
vt 0.734375 0.449707031
vt 1.85351562 0.345947266
vt 1.85351562 0.384765625
vt 1.83007812 0.357421875
vt 1.82519531 0.384765625
vt 1.83007812 0.412353516
vt 1.85351562 0.423583984
vt 1.84570312 0.287597656
vt 1.82421875 0.312744141
vt 1.82421875 0.27734375
vt 1.84960938 0.312744141
vt 1.84570312 0.337890625
vt 1.82421875 0.348144531
vt 1.69238281 0.243774414
vt 1.671875 0.237304688
vt 1.69238281 0.237304688
vt 1.671875 0.243774414
vt 1.69238281 0.443115234
vt 1.671875 0.443115234
vt 1.671875 0.449707031
vt 1.69238281 0.449707031
vt 1.75390625 0.237304688
vt 1.734375 0.243774414
vt 1.734375 0.237304688
vt 1.75390625 0.243774414
vt 1.75390625 0.443115234
vt 1.734375 0.443115234
vt 1.75390625 0.449707031
vt 1.734375 0.449707031
vt 0.779785156 0.278076172
vt 0.777832031 0.257324219
vt 0.7578125 0.260498047
vt 0.790527344 0.257324219
vt 0.793945312 0.274169922
vt 0.8046875 0.259521484
vt 0.807617188 0.272216797
vt 0.817382812 0.264648438
vt 0.818847656 0.271484375
vt 0.831054688 0.271484375
vt 0.84765625 0.258300781
vt 0.869140625 0.240722656
vt 0.850097656 0.23815918
vt 0.836914062 0.23828125
vt 0.833007812 0.254394531
vt 0.822753906 0.240356445
vt 0.819824219 0.252685547
vt 0.810546875 0.244873047
vt 0.80859375 0.251953125
vt 0.796386719 0.252197266
vt 0.858886719 0.481933594
vt 0.860839844 0.490722656
vt 0.872070312 0.469238281
vt 0.847167969 0.491210938
vt 0.849121094 0.506835938
vt 0.832519531 0.498779297
vt 0.835449219 0.519042969
vt 0.818847656 0.503417969
vt 0.821777344 0.527832031
vt 0.794921875 0.506835938
vt 0.800292969 0.534179688
vt 0.780273438 0.535644531
vt 0.780273438 0.508789062
vt 0.780273438 0.437988281
vt 0.791015625 0.437255859
vt 0.766113281 0.506835938
vt 0.760742188 0.534179688
vt 0.739257812 0.528320312
vt 0.741210938 0.50390625
vt 0.725097656 0.51953125
vt 0.727539062 0.498779297
vt 0.711425781 0.507324219
vt 0.713378906 0.491210938
vt 0.69921875 0.491455078
vt 0.701171875 0.481689453
vt 0.6875 0.470214844
vt 0.76953125 0.437255859
vt 0.780273438 0.374267578
vt 0.786132812 0.373779297
vt 0.774414062 0.373779297
vt 0.780273438 0.310302734
vt 0.779785156 0.278076172
vt 0.7578125 0.260498047
vt 0.7578125 0.315673828
vt 0.773925781 0.31640625
vt 0.765625 0.367675781
vt 0.7578125 0.367675781
vt 0.7578125 0.419677734
vt 0.869140625 0.347900391
vt 0.861816406 0.347900391
vt 0.869140625 0.399902344
vt 0.869140625 0.295898438
vt 0.853515625 0.296630859
vt 0.84765625 0.258300781
vt 0.869140625 0.240722656
vt 1.78027344 0.278076172
vt 1.7578125 0.260498047
vt 1.77734375 0.257324219
vt 1.79101562 0.257324219
vt 1.79394531 0.274169922
vt 1.8046875 0.259521484
vt 1.80761719 0.272216797
vt 1.81738281 0.264648438
vt 1.81933594 0.271484375
vt 1.83105469 0.271484375
vt 1.84765625 0.258300781
vt 1.84960938 0.23815918
vt 1.86914062 0.240722656
vt 1.83691406 0.23828125
vt 1.83300781 0.254394531
vt 1.82226562 0.240356445
vt 1.81933594 0.252685547
vt 1.81054688 0.244873047
vt 1.80859375 0.251953125
vt 1.79589844 0.252197266
vt 1.85839844 0.481933594
vt 1.87207031 0.469238281
vt 1.86132812 0.490722656
vt 1.84667969 0.491210938
vt 1.84863281 0.506835938
vt 1.83300781 0.498779297
vt 1.83496094 0.519042969
vt 1.81835938 0.503417969
vt 1.82128906 0.527832031
vt 1.79492188 0.506835938
vt 1.79980469 0.534179688
vt 1.78027344 0.535644531
vt 1.78027344 0.508789062
vt 1.78027344 0.437988281
vt 1.79101562 0.437255859
vt 1.765625 0.506835938
vt 1.76074219 0.534179688
vt 1.73925781 0.528320312
vt 1.74121094 0.50390625
vt 1.72558594 0.51953125
vt 1.72753906 0.498779297
vt 1.71191406 0.507324219
vt 1.71289062 0.491210938
vt 1.69921875 0.491455078
vt 1.70117188 0.481689453
vt 1.6875 0.470214844
vt 1.76953125 0.437255859
vt 1.78027344 0.374267578
vt 1.77441406 0.373779297
vt 1.78027344 0.310302734
vt 1.78613281 0.373779297
vt 1.78027344 0.278076172
vt 1.7578125 0.315673828
vt 1.7578125 0.260498047
vt 1.77441406 0.31640625
vt 1.765625 0.367675781
vt 1.7578125 0.367675781
vt 1.7578125 0.419677734
vt 1.86914062 0.347900391
vt 1.86914062 0.399902344
vt 1.86132812 0.347900391
vt 1.86914062 0.295898438
vt 1.85351562 0.296630859
vt 1.84765625 0.258300781
vt 1.86914062 0.240722656
vt 0.80078125 0.374267578
vt 0.800292969 0.391357422
vt 0.818847656 0.391357422
vt 0.818359375 0.374267578
vt 0.801757812 0.356201172
vt 0.817382812 0.356201172
vt 0.803222656 0.344238281
vt 0.815917969 0.344238281
vt 0.8046875 0.329589844
vt 0.814453125 0.329589844
vt 0.807128906 0.314697266
vt 0.812011719 0.314697266
vt 0.809570312 0.296386719
vt 0.812011719 0.468017578
vt 0.807128906 0.468017578
vt 0.809570312 0.486328125
vt 0.814453125 0.452880859
vt 0.8046875 0.452880859
vt 0.803222656 0.438720703
vt 0.815917969 0.438720703
vt 0.801757812 0.426513672
vt 0.817382812 0.426513672
vt 0.80078125 0.408691406
vt 0.818359375 0.408691406
vt 0.800292969 0.391357422
vt 0.818847656 0.391357422
vt 0.734863281 0.477783203
vt 0.745117188 0.478027344
vt 0.74609375 0.470947266
vt 0.735351562 0.470947266
vt 0.724609375 0.470947266
vt 0.734863281 0.477783203
vt 0.735351562 0.470947266
vt 0.724609375 0.477783203
vt 0.714355469 0.477783203
vt 0.713867188 0.470947266
vt 0.711425781 0.457763672
vt 0.724609375 0.453369141
vt 0.7109375 0.453369141
vt 0.724609375 0.457763672
vt 0.711914062 0.461669922
vt 0.695800781 0.457763672
vt 0.697753906 0.461669922
vt 0.724609375 0.461669922
vt 0.737304688 0.461669922
vt 0.737792969 0.457763672
vt 0.737792969 0.453369141
vt 0.751464844 0.461669922
vt 0.753417969 0.457763672
vt 0.704101562 0.477783203
vt 0.714355469 0.477783203
vt 0.713867188 0.470947266
vt 0.703125 0.470947266
vt 0.737792969 0.453369141
vt 0.737792969 0.457763672
vt 0.753417969 0.457763672
vt 0.754394531 0.453369141
vt 0.694824219 0.453369141
vt 0.695800781 0.457763672
vt 0.711425781 0.457763672
vt 0.7109375 0.453369141
vt 0.712402344 0.465576172
vt 0.724609375 0.461669922
vt 0.711914062 0.461669922
vt 0.724609375 0.465576172
vt 0.736816406 0.465576172
vt 0.737304688 0.461669922
vt 0.737304688 0.461669922
vt 0.736816406 0.465576172
vt 0.750488281 0.465576172
vt 0.751464844 0.461669922
vt 0.697753906 0.461669922
vt 0.698730469 0.465576172
vt 0.712402344 0.465576172
vt 0.711914062 0.461669922
vt 0.736816406 0.465576172
vt 0.74609375 0.470947266
vt 0.750488281 0.465576172
vt 0.735351562 0.470947266
vt 0.724609375 0.465576172
vt 0.724609375 0.470947266
vt 0.713867188 0.470947266
vt 0.712402344 0.465576172
vt 0.698730469 0.465576172
vt 0.703125 0.470947266
vt 0.672851562 0.48046875
vt 0.672851562 0.510253906
vt 0.693847656 0.489257812
vt 0.697753906 0.510253906
vt 0.693847656 0.53125
vt 0.672851562 0.540039062
vt 0.833984375 0.474121094
vt 0.833984375 0.489746094
vt 0.838378906 0.487304688
vt 0.838378906 0.473388672
vt 0.833984375 0.457275391
vt 0.838378906 0.457275391
vt 0.838378906 0.44140625
vt 0.833984375 0.440429688
vt 0.838378906 0.427490234
vt 0.833984375 0.424804688
vt 0.84375 0.44140625
vt 0.838378906 0.44140625
vt 0.838378906 0.457275391
vt 0.84375 0.457275391
vt 0.84765625 0.441894531
vt 0.84765625 0.457275391
vt 0.84765625 0.47265625
vt 0.84375 0.473144531
vt 0.838378906 0.473388672
vt 0.838378906 0.44140625
vt 0.84375 0.427978516
vt 0.838378906 0.427490234
vt 0.84375 0.44140625
vt 0.84765625 0.428955078
vt 0.84765625 0.441894531
vt 0.84765625 0.485595703
vt 0.84765625 0.47265625
vt 0.84375 0.473144531
vt 0.84375 0.486572266
vt 0.838378906 0.473388672
vt 0.838378906 0.487304688
vt 0.822753906 0.475341797
vt 0.822753906 0.491210938
vt 0.833984375 0.489746094
vt 0.833984375 0.474121094
vt 0.822753906 0.457275391
vt 0.822753906 0.475341797
vt 0.833984375 0.474121094
vt 0.833984375 0.457275391
vt 0.833984375 0.440429688
vt 0.822753906 0.439208984
vt 0.833984375 0.424804688
vt 0.822753906 0.423339844
vt 0.822753906 0.439208984
vt 0.833984375 0.440429688
vt 1.734375 0.477783203
vt 1.73535156 0.470947266
vt 1.74609375 0.470947266
vt 1.74511719 0.478027344
vt 1.72460938 0.470947266
vt 1.73535156 0.470947266
vt 1.734375 0.477783203
vt 1.72460938 0.477783203
vt 1.71386719 0.477783203
vt 1.71386719 0.470947266
vt 1.7109375 0.457763672
vt 1.7109375 0.453369141
vt 1.72460938 0.453369141
vt 1.72460938 0.457763672
vt 1.71191406 0.461669922
vt 1.6953125 0.457763672
vt 1.69726562 0.461669922
vt 1.72460938 0.461669922
vt 1.73730469 0.461669922
vt 1.73730469 0.457763672
vt 1.73828125 0.453369141
vt 1.75097656 0.461669922
vt 1.75390625 0.457763672
vt 1.70410156 0.477783203
vt 1.703125 0.470947266
vt 1.71386719 0.470947266
vt 1.71386719 0.477783203
vt 1.73828125 0.453369141
vt 1.75390625 0.453369141
vt 1.75390625 0.457763672
vt 1.73730469 0.457763672
vt 1.6953125 0.453369141
vt 1.7109375 0.453369141
vt 1.7109375 0.457763672
vt 1.6953125 0.457763672
vt 1.71191406 0.465576172
vt 1.71191406 0.461669922
vt 1.72460938 0.461669922
vt 1.72460938 0.465576172
vt 1.73632812 0.465576172
vt 1.73730469 0.461669922
vt 1.73730469 0.461669922
vt 1.75097656 0.461669922
vt 1.75 0.465576172
vt 1.73632812 0.465576172
vt 1.69726562 0.461669922
vt 1.71191406 0.461669922
vt 1.71191406 0.465576172
vt 1.69921875 0.465576172
vt 1.73632812 0.465576172
vt 1.75 0.465576172
vt 1.74609375 0.470947266
vt 1.73535156 0.470947266
vt 1.72460938 0.465576172
vt 1.72460938 0.470947266
vt 1.71386719 0.470947266
vt 1.71191406 0.465576172
vt 1.69921875 0.465576172
vt 1.703125 0.470947266
vt 1.67285156 0.48046875
vt 1.69433594 0.489257812
vt 1.67285156 0.510253906
vt 1.69726562 0.510253906
vt 1.69433594 0.53125
vt 1.67285156 0.540039062
vt 1.83398438 0.474121094
vt 1.83789062 0.487304688
vt 1.83398438 0.489746094
vt 1.83789062 0.473388672
vt 1.83398438 0.457275391
vt 1.83789062 0.457275391
vt 1.83789062 0.44140625
vt 1.83398438 0.440429688
vt 1.83789062 0.427490234
vt 1.83398438 0.424804688
vt 1.84375 0.44140625
vt 1.83789062 0.457275391
vt 1.83789062 0.44140625
vt 1.84375 0.457275391
vt 1.84765625 0.441894531
vt 1.84765625 0.457275391
vt 1.84765625 0.47265625
vt 1.84375 0.473144531
vt 1.83789062 0.473388672
vt 1.83789062 0.44140625
vt 1.83789062 0.427490234
vt 1.84375 0.427978516
vt 1.84375 0.44140625
vt 1.84765625 0.428955078
vt 1.84765625 0.441894531
vt 1.84765625 0.485595703
vt 1.84375 0.473144531
vt 1.84765625 0.47265625
vt 1.84375 0.486572266
vt 1.83789062 0.473388672
vt 1.83789062 0.487304688
vt 1.82226562 0.475341797
vt 1.83398438 0.474121094
vt 1.83398438 0.489746094
vt 1.82226562 0.491210938
vt 1.82226562 0.457275391
vt 1.83398438 0.474121094
vt 1.82226562 0.475341797
vt 1.83398438 0.457275391
vt 1.83398438 0.440429688
vt 1.82226562 0.439208984
vt 1.83398438 0.424804688
vt 1.83398438 0.440429688
vt 1.82226562 0.439208984
vt 1.82226562 0.423339844
vt 0.713378906 0.243774414
vt 0.734375 0.443115234
vt 0.734375 0.243774414
vt 0.734375 0.237304688
vt 0.713378906 0.237304688
vt 0.691894531 0.237304688
vt 0.691894531 0.243774414
vt 0.713378906 0.443115234
vt 0.734375 0.449707031
vt 0.691894531 0.443115234
vt 0.713378906 0.449707031
vt 0.691894531 0.449707031
vt 1.71289062 0.243774414
vt 1.734375 0.243774414
vt 1.734375 0.443115234
vt 1.734375 0.237304688
vt 1.71289062 0.237304688
vt 1.69238281 0.237304688
vt 1.69238281 0.243774414
vt 1.71289062 0.443115234
vt 1.734375 0.449707031
vt 1.69238281 0.443115234
vt 1.71289062 0.449707031
vt 1.69238281 0.449707031
vn 0.258878112 -0.736422956 -0.625030637
vn -0 -0.734720469 -0.678369939
vn -0 -0.734720469 -0.678369939
vn 0.258879453 -0.736423016 -0.6250301
vn 0.479688555 -0.734709799 -0.47968778
vn 0.479688317 -0.734709859 -0.479687989
vn 0.625043452 -0.736406326 -0.258894593
vn 0.625041604 -0.736406326 -0.258898795
vn 0.678398669 -0.734694004 0
vn 0.678398669 -0.734694064 0
vn 0.625043452 -0.736406326 0.258894652
vn 0.625041604 -0.736406326 0.258898854
vn 0.479688555 -0.734709799 0.47968778
vn 0.479688287 -0.734709799 0.479687989
vn 0.258878082 -0.736422956 0.625030637
vn 0.258879393 -0.736423016 0.6250301
vn -0 -0.734720469 0.678369939
vn -0 -0.734720469 0.678369939
vn -0.258878112 -0.736423016 0.625030577
vn -0.258879453 -0.736422956 0.6250301
vn -0.479688585 -0.734709859 0.479687721
vn -0.479688317 -0.734709859 0.479687899
vn -0.625030994 -0.736422777 0.258877814
vn -0.625030518 -0.736422777 0.258879155
vn -0.678370357 -0.734720111 0
vn -0.678370357 -0.73472017 0
vn -0.625030994 -0.736422837 -0.258877814
vn -0.625030398 -0.736422837 -0.258879095
vn -0.479688555 -0.734709859 -0.479687661
vn -0.479688287 -0.734709859 -0.479687899
vn -0.258878082 -0.736422956 -0.625030637
vn -0.258879423 -0.736422956 -0.6250301
vn -0 -0.734720469 -0.678369939
vn -0 -0.734720469 -0.678369939
vn 0.257811874 -0.739104033 0.622300804
vn -0 -0.738320947 0.674449563
vn -0 -0.738320827 0.674449623
vn 0.257807434 -0.739104033 0.622302711
vn 0.476932228 -0.738289118 0.476932645
vn 0.476932138 -0.738289118 0.476932764
vn 0.622301638 -0.739103079 0.25781247
vn 0.622303426 -0.739103079 0.25780794
vn 0.674450934 -0.738319695 0
vn 0.674450934 -0.738319695 0
vn 0.622301638 -0.739103079 -0.25781247
vn 0.622303486 -0.739103079 -0.25780794
vn 0.476933032 -0.738288701 -0.476932615
vn 0.476933122 -0.738288641 -0.476932675
vn 0.257811934 -0.739103198 -0.622301698
vn 0.257807821 -0.739103198 -0.622303426
vn -0 -0.738319695 -0.674450934
vn -0 -0.738319755 -0.674450815
vn -0.257811874 -0.739103198 -0.622301698
vn -0.257807732 -0.739103198 -0.622303426
vn -0.476933032 -0.738288701 -0.476932615
vn -0.476933032 -0.73828876 -0.476932615
vn -0.622324049 -0.739090741 -0.257793993
vn -0.622327328 -0.739090681 -0.257786095
vn -0.674487889 -0.738285899 0
vn -0.674487948 -0.73828584 0
vn -0.622324049 -0.739090741 0.257793963
vn -0.622327268 -0.739090741 0.257786095
vn -0.476932228 -0.738289177 0.476932615
vn -0.476932138 -0.738289177 0.476932704
vn -0.257811874 -0.739104033 0.622300804
vn -0.257807434 -0.739104033 0.622302711
vn -0 -0.738320827 0.674449623
vn -0 -0.738320947 0.674449563
vn 0.258878082 0.736422956 -0.625030637
vn -0 0.734720469 -0.678369939
vn -0 0.734720469 -0.678369939
vn 0.258879393 0.736423016 -0.6250301
vn 0.479688555 0.734709799 -0.47968778
vn 0.479688287 0.734709799 -0.479687989
vn 0.625043452 0.736406326 -0.258894652
vn 0.625041604 0.736406326 -0.258898854
vn 0.678398669 0.734694004 0
vn 0.678398669 0.734694064 0
vn 0.625043452 0.736406326 0.258894593
vn 0.625041604 0.736406326 0.258898795
vn 0.479688555 0.734709799 0.47968778
vn 0.479688317 0.734709859 0.479687989
vn 0.258878112 0.736422956 0.625030637
vn 0.258879453 0.736423016 0.6250301
vn -0 0.734720469 0.678369939
vn -0 0.734720469 0.678369939
vn -0.258878082 0.736422956 0.625030637
vn -0.258879423 0.736422956 0.6250301
vn -0.479688555 0.734709859 0.479687661
vn -0.479688287 0.734709859 0.479687899
vn -0.625030994 0.736422837 0.258877814
vn -0.625030398 0.736422837 0.258879095
vn -0.678370357 0.734720111 0
vn -0.678370357 0.73472017 0
vn -0.625030994 0.736422777 -0.258877814
vn -0.625030518 0.736422777 -0.258879155
vn -0.479688585 0.734709859 -0.479687721
vn -0.479688317 0.734709859 -0.479687899
vn -0.258878112 0.736423016 -0.625030577
vn -0.258879453 0.736422956 -0.6250301
vn -0 0.734720469 -0.678369939
vn -0 0.734720469 -0.678369939
vn 0.257811904 0.739104033 0.622300804
vn -0 0.738320887 0.674449563
vn -0 0.738320947 0.674449563
vn 0.257807463 0.739104092 0.622302651
vn 0.476932287 0.738289118 0.476932645
vn 0.476932198 0.738289118 0.476932764
vn 0.622301638 0.739103079 0.25781247
vn 0.622303426 0.739103079 0.25780794
vn 0.674450934 0.738319695 0
vn 0.674450934 0.738319695 0
vn 0.622301638 0.739103079 -0.2578125
vn 0.622303486 0.739103079 -0.25780797
vn 0.476933032 0.738288701 -0.476932615
vn 0.476933062 0.738288641 -0.476932734
vn 0.257811934 0.739103198 -0.622301698
vn 0.257807821 0.739103198 -0.622303426
vn -0 0.738319695 -0.674450934
vn -0 0.738319755 -0.674450815
vn -0.257811874 0.739103198 -0.622301698
vn -0.257807732 0.739103198 -0.622303426
vn -0.476933032 0.738288701 -0.476932585
vn -0.476932973 0.738288701 -0.476932675
vn -0.622324049 0.739090741 -0.257793963
vn -0.622327268 0.739090741 -0.257786125
vn -0.674487889 0.738285899 0
vn -0.674487948 0.73828584 0
vn -0.622324049 0.739090741 0.257794023
vn -0.622327328 0.739090681 0.257786125
vn -0.476932228 0.738289118 0.476932645
vn -0.476932138 0.738289118 0.476932764
vn -0.257811874 0.739104033 0.622300804
vn -0.257807463 0.739104092 0.622302651
vn -0 0.738320887 0.674449563
vn -0 0.738320947 0.674449563
vn -0 0 -1
vn -0 0 -1
vn -0 0 -1
vn -0 0 -1
vn -0 0 -1
vn -0 0 -1
vn -0 0 1
vn -0 0 1
vn -0 0 1
vn -0 0 1
vn -0 0 1
vn -0 0 1
vn -0.883748531 -0.422112316 -0.202014253
vn -0.822922587 -0.393056899 -0.410249442
vn -0.822922587 -0.393056899 -0.410249442
vn -0.884850085 -0.422638506 -0.196002558
vn -0.883758724 -0.422108054 0.201978385
vn -0.884855986 -0.422632486 0.195989057
vn -0.822949409 -0.393051118 0.410201281
vn -0.822949409 -0.393051118 0.410201281
vn 0.822922707 -0.39305681 -0.410249412
vn 0.822922707 -0.39305678 -0.410249382
vn 0.883748591 -0.422112107 -0.202014208
vn 0.884850204 -0.422638357 -0.196002558
vn 0.884865403 -0.422627211 0.195957795
vn 0.883765101 -0.422101051 0.201965451
vn 0.822975993 -0.393043816 0.410154939
vn 0.822976053 -0.393043846 0.410154909
vn -0 0 -1
vn -0 0 -1
vn -0 0 -1
vn -0 0 -1
vn -0 0 -1
vn -0 0 -1
vn -0 0 1
vn -0 0 1
vn -0 0 1
vn -0 0 1
vn -0 0 1
vn -0 0 1
vn -0.883748591 0.422112256 -0.202014238
vn -0.822922587 0.39305687 -0.410249442
vn -0.822922587 0.39305681 -0.410249442
vn -0.884850085 0.422638476 -0.196002558
vn -0.883758724 0.422108054 0.201978385
vn -0.884855986 0.422632486 0.195989057
vn -0.822949409 0.393051177 0.410201281
vn -0.822949409 0.393051207 0.410201281
vn 0.822922707 0.39305681 -0.410249382
vn 0.883748591 0.422112107 -0.202014193
vn 0.822922766 0.39305681 -0.410249382
vn 0.884850204 0.422638357 -0.196002558
vn 0.884865403 0.422627211 0.195957795
vn 0.883765101 0.422101051 0.201965451
vn 0.822975993 0.393043816 0.410154939
vn 0.822976053 0.393043846 0.410154909
vn 0.129582137 -0.766733229 -0.628751755
vn 0.120835707 -0.767719805 -0.62928921
vn 0.090835847 -0.770644426 -0.630758286
vn 0.166383311 -0.761778891 -0.62610656
vn 0.170186237 -0.761182964 -0.625809133
vn 0.208535448 -0.760262311 -0.61523509
vn 0.222353131 -0.761336684 -0.609036565
vn 0.255852312 -0.762237608 -0.59458679
vn 0.260131687 -0.761403203 -0.593798578
vn 0.266522735 -0.760127187 -0.592597902
vn -0.112019539 -0.772755027 -0.624741018
vn -0.0916281044 -0.770236313 -0.631142139
vn -0.106918529 -0.772157907 -0.626370966
vn -0.143490344 -0.778724313 -0.610736489
vn -0.149226531 -0.780007064 -0.607717335
vn -0.189847007 -0.790219486 -0.582676053
vn -0.200509131 -0.793388546 -0.574744046
vn -0.227953821 -0.801407516 -0.552976549
vn -0.233716711 -0.803429306 -0.547610998
vn -0.241474897 -0.806075394 -0.540307581
vn 0.413411766 -0.907773435 0.0709793344
vn 0.400018126 -0.912878454 0.0814763308
vn 0.427603126 -0.901991844 0.059719
vn 0.350704461 -0.930341661 0.107101902
vn 0.315166861 -0.941066325 0.122735441
vn 0.258729756 -0.954572141 0.147820771
vn 0.244588479 -0.957280099 0.154244229
vn 0.171397164 -0.969291031 0.176346362
vn 0.162146717 -0.971696556 0.171796873
vn 0.0650511533 -0.993957877 0.0884078592
vn 0.0990780145 -0.979941726 0.172909811
vn -0 -0.983906388 0.178684413
vn -0 -0.998509467 0.0545791388
vn -0 -0.996128798 -0.0879055187
vn 0.0274168719 -0.9957425 -0.0880070627
vn -0.0626423955 -0.993802309 0.0918310061
vn -0.0990780145 -0.979941726 0.172909811
vn -0.156412438 -0.968136251 0.195569187
vn -0.164126351 -0.963940561 0.209478274
vn -0.258989453 -0.945556641 0.197096527
vn -0.284824193 -0.939223826 0.191660509
vn -0.362016946 -0.917763412 0.163260922
vn -0.399432093 -0.905913234 0.14062427
vn -0.44338268 -0.890183985 0.104806229
vn -0.448640615 -0.88922745 0.0894217491
vn -0.453694165 -0.888056934 0.0742726773
vn -0.0274168719 -0.9957425 -0.0880070627
vn -0 -0.995820999 -0.0913261622
vn 0.0318312086 -0.995314956 -0.091295898
vn -0.0318312086 -0.995314956 -0.0912958831
vn -0 -0.995789707 -0.09166646
vn -0.568378985 -0.816448689 -0.10176862
vn -0.568379045 -0.816448629 -0.101768613
vn -0.570694029 -0.81339705 -0.112665445
vn -0.570610821 -0.813510358 -0.112267964
vn -0.578407884 -0.805884957 -0.126466542
vn -0.578971088 -0.805443585 -0.126700759
vn -0.584836841 -0.800804436 -0.129144102
vn 0.578971028 -0.805443585 -0.126700759
vn 0.578407884 -0.805884957 -0.126466542
vn 0.584836841 -0.800804436 -0.129144102
vn 0.57069397 -0.81339705 -0.112665437
vn 0.570610821 -0.813510358 -0.112267956
vn 0.568378985 -0.816448689 -0.101768583
vn 0.568378985 -0.816448689 -0.101768583
vn 0.129582137 0.76673317 -0.628751814
vn 0.0908358544 0.770644426 -0.630758345
vn 0.120835707 0.767719805 -0.629289269
vn 0.166383326 0.761778891 -0.62610656
vn 0.170186237 0.761182964 -0.625809193
vn 0.208535433 0.760262251 -0.61523515
vn 0.222353086 0.761336625 -0.609036565
vn 0.255852312 0.762237608 -0.59458679
vn 0.260131657 0.761403203 -0.593798578
vn 0.266522735 0.760127187 -0.592597902
vn -0.112019554 0.772754967 -0.624741137
vn -0.106918529 0.772157907 -0.626370966
vn -0.0916281044 0.770236313 -0.631142139
vn -0.143490344 0.778724313 -0.610736489
vn -0.149226516 0.780007005 -0.607717395
vn -0.189846992 0.790219486 -0.582675993
vn -0.200509131 0.793388546 -0.574744046
vn -0.227953866 0.801407516 -0.552976549
vn -0.233716711 0.803429306 -0.547610998
vn -0.241474897 0.806075394 -0.540307581
vn 0.413375407 0.907792687 0.0709462389
vn 0.427564174 0.902013302 0.059673667
vn 0.399983317 0.91289556 0.0814552978
vn 0.350683749 0.930350363 0.107094109
vn 0.315157175 0.94107002 0.122732006
vn 0.258734524 0.954571784 0.147814333
vn 0.244595841 0.957279861 0.154234469
vn 0.171401069 0.969293594 0.176328093
vn 0.162143186 0.97169894 0.171786547
vn 0.0650469214 0.993958354 0.0884054154
vn 0.0990665182 0.979942322 0.172913298
vn -0 0.983906388 0.178684443
vn -0 0.998509467 0.0545791462
vn -0 0.996128798 -0.0879055411
vn 0.0274169315 0.9957425 -0.0880070776
vn -0.0626382157 0.993802786 0.09182854
vn -0.0990665182 0.979942322 0.172913298
vn -0.156408921 0.968138933 0.195558801
vn -0.164130524 0.963943779 0.209460109
vn -0.258996844 0.945556641 0.197086886
vn -0.284828871 0.939223707 0.19165428
vn -0.362007916 0.917767525 0.163257837
vn -0.399412751 0.90592283 0.140617132
vn -0.443351597 0.890201688 0.104787387
vn -0.448608696 0.889246583 0.0893908739
vn -0.453661174 0.888077319 0.0742308274
vn -0.0274169352 0.9957425 -0.0880070776
vn -0 0.995820999 -0.0913261697
vn -0.0318312459 0.995314956 -0.091295898
vn -0 0.995789707 -0.0916664749
vn 0.0318312459 0.995314956 -0.091295898
vn -0.568378985 0.816448689 -0.101768643
vn -0.57069397 0.81339705 -0.112665445
vn -0.568379045 0.816448689 -0.101768643
vn -0.570610821 0.813510358 -0.112267964
vn -0.578407884 0.805884957 -0.126466542
vn -0.578971028 0.805443585 -0.126700744
vn -0.584836841 0.800804436 -0.129144102
vn 0.578971088 0.805443585 -0.126700774
vn 0.584836841 0.800804436 -0.129144102
vn 0.578407884 0.805884957 -0.126466542
vn 0.570694029 0.81339699 -0.112665437
vn 0.570610881 0.813510358 -0.112267964
vn 0.568379045 0.816448629 -0.101768598
vn 0.568379045 0.816448629 -0.101768598
vn 0.244589895 0 0.969626665
vn 0.136698097 0 0.990612745
vn 0.136698097 0 0.990612745
vn 0.244590759 0 0.969626486
vn 0.454861969 0 0.890561998
vn 0.454861552 0 0.890562236
vn 0.616716564 0 0.787185311
vn 0.616715908 0 0.787185848
vn 0.752673447 0 0.658394039
vn 0.752674103 0 0.658393264
vn 0.865596056 0 0.500742912
vn 0.865596056 0 0.500742972
vn 0.905430198 0 0.42449522
vn -0.865683734 4.49304991E-07 0.500591338
vn -0.865683734 4.49305134E-07 0.500591278
vn -0.905585527 7.28374516E-07 0.424163759
vn -0.752674162 1.67552926E-07 0.658393145
vn -0.752673447 1.67552486E-07 0.658394039
vn -0.616716564 1.05425556E-07 0.787185311
vn -0.616715908 1.0542535E-07 0.787185848
vn -0.454861999 0 0.890561938
vn -0.454861552 0 0.890562236
vn -0.24458985 0 0.969626665
vn -0.244590759 0 0.969626486
vn -0.136698067 0 0.990612745
vn -0.136698067 0 0.990612745
vn -0.920228899 -0.380641311 -0.0910543874
vn -0.995140314 0 -0.098466672
vn -0.995140314 0 -0.0984666646
vn -0.920228899 -0.380641371 -0.0910543799
vn -0 -0.996604443 -0.0823389366
vn -0.176747456 -0.980913997 -0.0810425729
vn -0.176747456 -0.980913997 -0.0810425878
vn -0 -0.996604443 -0.0823389217
vn 0.176747471 -0.980913997 -0.0810425803
vn 0.176747486 -0.980913997 -0.0810425729
vn 0.279297799 -0.702153027 -0.65496099
vn -0 -0.975665927 -0.219262332
vn 0.173200995 -0.960920274 -0.215948552
vn -0 -0.835132241 -0.550049305
vn 0.286124319 -0.391745955 -0.874452949
vn 0.480823666 0 -0.876817346
vn 0.480823666 0 -0.876817346
vn -0 -0.548949897 -0.835855305
vn -0.28612414 -0.391745955 -0.874452949
vn -0.279297829 -0.702152908 -0.654961169
vn -0.17320098 -0.960920274 -0.215948492
vn -0.480823517 0 -0.876817346
vn -0.480823576 0 -0.876817346
vn 0.995140314 0 -0.098466672
vn 0.920228899 -0.380641311 -0.0910543874
vn 0.920228899 -0.380641371 -0.0910543799
vn 0.995140314 0 -0.0984666646
vn -0.896625936 -0.371073633 -0.24159129
vn -0.896625936 -0.371073604 -0.24159129
vn -0.965563834 0 -0.260166258
vn -0.965563834 0 -0.260166258
vn 0.965563834 0 -0.260166347
vn 0.965563834 0 -0.260166317
vn 0.896625936 -0.371073425 -0.241591349
vn 0.896625936 -0.371073484 -0.241591379
vn 0.176465929 -0.979398847 -0.0981720015
vn -0 -0.995013773 -0.0997371599
vn 0.176465929 -0.979398847 -0.0981719941
vn -0 -0.995013773 -0.0997371599
vn -0.176465943 -0.979398847 -0.0981719568
vn -0.176465929 -0.979398847 -0.0981719494
vn -0.918367863 -0.380060166 -0.110249013
vn -0.918367863 -0.380060166 -0.110249013
vn -0.992871106 0 -0.119193047
vn -0.992871106 0 -0.119193047
vn 0.992871106 0 -0.119193323
vn 0.992871106 0 -0.119193316
vn 0.918367863 -0.380060077 -0.110249273
vn 0.918367863 -0.380060077 -0.110249266
vn -0.16366981 -0.194122985 -0.967227221
vn -0.253098935 0 -0.967440426
vn -0.253098935 0 -0.967440426
vn -0.149279267 -0.208290026 -0.966607869
vn -0 -0.299112201 -0.954217911
vn -0 -0.299112201 -0.954217911
vn 0.149279267 -0.208290026 -0.966607869
vn 0.16366981 -0.194122985 -0.967227221
vn 0.253098935 0 -0.967440426
vn 0.253098935 0 -0.967440426
vn -0 0 1
vn -0 0 1
vn 0.000624442357 -0.00621690368 0.99998045
vn -0 -0.0075337179 0.999971628
vn -0.000624442357 -0.00621690368 0.99998045
vn -0 0 1
vn -0.277613789 -0.356208324 0.892214239
vn -0.439379543 0 0.898301482
vn -0.439379573 0 0.898301482
vn -0.258044451 -0.372433543 0.891462982
vn -0 -0.49903658 0.866580904
vn -0 -0.49903658 0.866580904
vn 0.258044481 -0.372433543 0.891462982
vn 0.277613759 -0.356208354 0.892214239
vn 0.439379483 0 0.898301482
vn 0.439379483 0 0.898301482
vn 0.196670175 -0.97477597 0.105511531
vn 0.191696092 -0.981333673 0.0153893158
vn -0 -0.999877095 0.0156801511
vn -0 -0.99368906 0.11216975
vn 0.200333685 -0.9579072 0.205621555
vn -0 -0.977728009 0.209876165
vn -0.2003337 -0.9579072 0.205621421
vn -0.196670204 -0.97477597 0.105511516
vn -0.191696137 -0.981333673 0.0153893884
vn 0.881700158 -0.468579382 0.0551196486
vn 0.874391735 -0.462971449 0.145247087
vn 0.881700158 -0.468579412 0.0551196486
vn 0.874034822 -0.462726116 0.148147076
vn 0.857720196 -0.452200711 0.244603142
vn 0.857720196 -0.452200711 0.244603142
vn -0.857720077 -0.452200741 0.244603008
vn -0.857720077 -0.4522008 0.244603008
vn -0.874034762 -0.462726295 0.1481473
vn -0.874391615 -0.462971538 0.145247281
vn -0.881700039 -0.468579561 0.0551201664
vn -0.881700039 -0.468579561 0.0551201738
vn -0.882891417 -0.455603421 0.113703042
vn -0.882891417 -0.455603421 0.113703042
vn -0.882891417 -0.455603421 0.113703042
vn -0.882891417 -0.455603421 0.113703042
vn -0 -0.999990582 0.00435867347
vn -0.177251995 -0.984156191 0.00428964896
vn -0.17725201 -0.984156191 0.00428964943
vn -0 -0.999990582 0.00435867347
vn 0.17725201 -0.984156191 0.00428966293
vn 0.17725201 -0.984156191 0.00428966247
vn 0.882891297 -0.45560357 0.113703206
vn 0.882891297 -0.45560351 0.113703206
vn 0.882891297 -0.45560351 0.113703191
vn 0.882891297 -0.45560357 0.113703206
vn -0.920228899 0.380641311 -0.0910543576
vn -0.920228899 0.380641371 -0.091054365
vn -0.995140314 0 -0.0984666646
vn -0.995140314 0 -0.098466672
vn -0 0.996604443 -0.0823388919
vn -0.176747456 0.980913997 -0.0810425431
vn -0.176747426 0.980913997 -0.0810425431
vn -0 0.996604443 -0.082338877
vn 0.176747426 0.980913997 -0.0810425431
vn 0.176747456 0.980913997 -0.0810425431
vn 0.279297799 0.702153027 -0.65496099
vn 0.173200995 0.960920274 -0.215948552
vn -0 0.975665927 -0.219262332
vn -0 0.835132241 -0.550049305
vn 0.286124319 0.391745955 -0.874452949
vn 0.480823666 0 -0.876817346
vn 0.480823666 0 -0.876817346
vn -0 0.548949897 -0.835855305
vn -0.28612417 0.391746014 -0.874452949
vn -0.279297769 0.702152908 -0.65496105
vn -0.17320098 0.960920274 -0.215948492
vn -0.480823517 0 -0.876817346
vn -0.480823576 0 -0.876817346
vn 0.995140314 0 -0.098466672
vn 0.995140314 0 -0.0984666646
vn 0.920228899 0.380641371 -0.091054365
vn 0.920228899 0.380641311 -0.0910543576
vn -0.896625936 0.371073633 -0.24159129
vn -0.965563834 0 -0.260166258
vn -0.965563834 0 -0.260166258
vn -0.896625936 0.371073604 -0.24159129
vn 0.965563834 0 -0.260166347
vn 0.896625936 0.371073514 -0.241591379
vn 0.896625936 0.371073544 -0.241591379
vn 0.965563834 0 -0.260166317
vn 0.176465929 0.979398847 -0.0981720015
vn 0.176465929 0.979398847 -0.0981719941
vn -0 0.995013773 -0.0997371599
vn -0 0.995013773 -0.0997371599
vn -0.176465958 0.979398847 -0.0981719643
vn -0.176465943 0.979398847 -0.0981719643
vn -0.918367863 0.380060166 -0.110249013
vn -0.992871106 0 -0.119193047
vn -0.992871106 0 -0.119193047
vn -0.918367863 0.380060166 -0.110249013
vn 0.992871106 0 -0.119193323
vn 0.918367863 0.380060077 -0.110249266
vn 0.918367863 0.380060077 -0.110249273
vn 0.992871106 0 -0.119193316
vn -0.16366981 0.194122985 -0.967227221
vn -0.253098935 0 -0.967440426
vn -0.253098935 0 -0.967440426
vn -0.149279267 0.208290026 -0.966607869
vn -0 0.299112201 -0.954217911
vn -0 0.299112201 -0.954217911
vn 0.149279267 0.208290026 -0.966607869
vn 0.16366981 0.194122985 -0.967227221
vn 0.253098935 0 -0.967440426
vn 0.253098935 0 -0.967440426
vn -0 0 1
vn 0.000624442357 0.00621690368 0.99998045
vn -0 0 1
vn -0 0.0075337179 0.999971628
vn -0.000624442357 0.00621690368 0.99998045
vn -0 0 1
vn -0.277613789 0.356208324 0.892214239
vn -0.439379573 0 0.898301482
vn -0.439379543 0 0.898301482
vn -0.258044451 0.372433543 0.891462982
vn -0 0.49903658 0.866580904
vn -0 0.49903658 0.866580904
vn 0.258044451 0.372433543 0.891462982
vn 0.277613699 0.356208295 0.892214239
vn 0.439379483 0 0.898301482
vn 0.439379483 0 0.898301482
vn 0.196670175 0.97477597 0.105511509
vn -0 0.999877095 0.0156801511
vn 0.191696092 0.981333673 0.0153893158
vn -0 0.99368906 0.11216975
vn 0.20033367 0.9579072 0.205621526
vn -0 0.977728009 0.20987612
vn -0.2003337 0.9579072 0.205621421
vn -0.196670189 0.97477597 0.105511509
vn -0.191696122 0.981333673 0.0153893866
vn 0.881700158 0.468579412 0.0551196486
vn 0.881700158 0.468579471 0.0551196486
vn 0.874391735 0.462971449 0.145247072
vn 0.874034822 0.462726206 0.148147076
vn 0.857720077 0.452200681 0.244603112
vn 0.857720196 0.452200711 0.244603142
vn -0.857720077 0.452200741 0.244603008
vn -0.874034762 0.462726295 0.1481473
vn -0.857720077 0.4522008 0.244603008
vn -0.874391615 0.462971538 0.145247281
vn -0.881700039 0.468579501 0.0551201664
vn -0.881700039 0.468579471 0.0551201738
vn -0.882891417 0.455603421 0.113703042
vn -0.882891417 0.455603421 0.113703042
vn -0.882891417 0.455603421 0.113703042
vn -0.882891417 0.455603421 0.113703042
vn -0 0.999990582 0.00435866695
vn -0.177251995 0.984156191 0.00428964291
vn -0.177251995 0.984156191 0.00428964244
vn -0 0.999990582 0.00435866648
vn 0.17725201 0.984156191 0.00428965595
vn 0.177251995 0.984156191 0.00428965548
vn 0.882891297 0.45560351 0.113703206
vn 0.882891297 0.45560351 0.113703206
vn 0.882891297 0.455603451 0.113703191
vn 0.882891297 0.45560351 0.113703206
vn -0 -0.985565722 -0.169293165
vn 0.152343735 -0.976301014 0.153713107
vn 0.152342647 -0.9762941 -0.153757572
vn 0.145246938 -0.9307971 -0.335440099
vn -0 -0.940773606 -0.339035481
vn -0.145246997 -0.9307971 -0.335440129
vn -0.152342677 -0.9762941 -0.153757572
vn -0 -0.985574484 0.169242054
vn 0.145251602 -0.930826545 0.335356474
vn -0.152343765 -0.976300955 0.153713092
vn -0 -0.940803945 0.338951141
vn -0.145251602 -0.930826545 0.335356474
vn -0 0.985565722 -0.16929315
vn 0.152342647 0.9762941 -0.153757542
vn 0.152343735 0.976301014 0.153713107
vn 0.145246923 0.9307971 -0.335440099
vn -0 0.940773606 -0.339035422
vn -0.145246968 0.9307971 -0.335440099
vn -0.152342692 0.9762941 -0.153757572
vn -0 0.985574484 0.169242054
vn 0.145251602 0.930826545 0.335356474
vn -0.152343795 0.976300955 0.153713092
vn -0 0.940803945 0.338951141
vn -0.145251602 0.930826545 0.335356474
g fbx_Gusin_skin13_high_weapon003_0
f 3/3/3 2/2/2 1/1/1
f 2/2/2 4/4/4 1/1/1
f 4/4/4 5/5/5 1/1/1
f 5/5/5 6/6/6 1/1/1
f 6/6/6 5/5/5 7/7/7
f 5/5/5 8/8/8 7/7/7
f 8/8/8 9/9/9 7/7/7
f 9/9/9 10/10/10 7/7/7
f 10/10/10 9/9/9 11/11/11
f 9/9/9 12/12/12 11/11/11
f 12/12/12 13/13/13 11/11/11
f 13/13/13 14/14/14 11/11/11
f 14/14/14 13/13/13 15/15/15
f 13/13/13 16/16/16 15/15/15
f 16/16/16 17/17/17 15/15/15
f 17/17/17 18/18/18 15/15/15
f 18/18/18 17/17/17 19/19/19
f 17/17/17 20/20/20 19/19/19
f 20/20/20 21/21/21 19/19/19
f 21/21/21 22/22/22 19/19/19
f 22/22/22 21/21/21 23/23/23
f 21/21/21 24/24/24 23/23/23
f 24/24/24 25/25/25 23/23/23
f 25/25/25 26/26/26 23/23/23
f 26/26/26 25/25/25 27/27/27
f 25/25/25 28/28/28 27/27/27
f 28/28/28 29/29/29 27/27/27
f 29/29/29 30/30/30 27/27/27
f 30/30/30 29/29/29 31/31/31
f 29/29/29 32/32/32 31/31/31
f 32/32/32 33/33/33 31/31/31
f 33/33/33 34/34/34 31/31/31
f 37/37/37 36/36/36 35/35/35
f 38/38/38 37/37/37 35/35/35
f 38/38/38 35/35/35 39/39/39
f 35/35/35 40/40/40 39/39/39
f 39/39/39 40/40/40 41/41/41
f 42/42/42 39/39/39 41/41/41
f 42/42/42 41/41/41 43/43/43
f 41/41/41 44/44/44 43/43/43
f 43/43/43 44/44/44 45/45/45
f 46/46/46 43/43/43 45/45/45
f 46/46/46 45/45/45 47/47/47
f 45/45/45 48/48/48 47/47/47
f 47/47/47 48/48/48 49/49/49
f 50/50/50 47/47/47 49/49/49
f 50/50/50 49/49/49 51/51/51
f 49/49/49 52/52/52 51/51/51
f 51/51/51 52/52/52 53/53/53
f 54/54/54 51/51/51 53/53/53
f 54/54/54 53/53/53 55/55/55
f 53/53/53 56/56/56 55/55/55
f 55/55/55 56/56/56 57/57/57
f 58/58/58 55/55/55 57/57/57
f 58/58/58 57/57/57 59/59/59
f 57/57/57 60/60/60 59/59/59
f 59/59/59 60/60/60 61/61/61
f 62/62/62 59/59/59 61/61/61
f 62/62/62 61/61/61 63/63/63
f 61/61/61 64/64/64 63/63/63
f 63/63/63 64/64/64 65/65/65
f 66/66/66 63/63/63 65/65/65
f 66/66/66 65/65/65 67/67/67
f 65/65/65 68/68/68 67/67/67
f 71/71/71 70/70/70 69/69/69
f 72/72/72 71/71/71 69/69/69
f 73/73/73 72/72/72 69/69/69
f 74/74/74 73/73/73 69/69/69
f 73/73/73 74/74/74 75/75/75
f 76/76/76 73/73/73 75/75/75
f 77/77/77 76/76/76 75/75/75
f 78/78/78 77/77/77 75/75/75
f 77/77/77 78/78/78 79/79/79
f 80/80/80 77/77/77 79/79/79
f 81/81/81 80/80/80 79/79/79
f 82/82/82 81/81/81 79/79/79
f 81/81/81 82/82/82 83/83/83
f 84/84/84 81/81/81 83/83/83
f 85/85/85 84/84/84 83/83/83
f 86/86/86 85/85/85 83/83/83
f 85/85/85 86/86/86 87/87/87
f 88/88/88 85/85/85 87/87/87
f 89/89/89 88/88/88 87/87/87
f 90/90/90 89/89/89 87/87/87
f 89/89/89 90/90/90 91/91/91
f 92/92/92 89/89/89 91/91/91
f 93/93/93 92/92/92 91/91/91
f 94/94/94 93/93/93 91/91/91
f 93/93/93 94/94/94 95/95/95
f 96/96/96 93/93/93 95/95/95
f 97/97/97 96/96/96 95/95/95
f 98/98/98 97/97/97 95/95/95
f 97/97/97 98/98/98 99/99/99
f 100/100/100 97/97/97 99/99/99
f 101/101/101 100/100/100 99/99/99
f 102/102/102 101/101/101 99/99/99
f 105/105/105 104/104/104 103/103/103
f 104/104/104 106/106/106 103/103/103
f 103/103/103 106/106/106 107/107/107
f 108/108/108 103/103/103 107/107/107
f 108/108/108 107/107/107 109/109/109
f 107/107/107 110/110/110 109/109/109
f 109/109/109 110/110/110 111/111/111
f 112/112/112 109/109/109 111/111/111
f 112/112/112 111/111/111 113/113/113
f 111/111/111 114/114/114 113/113/113
f 113/113/113 114/114/114 115/115/115
f 116/116/116 113/113/113 115/115/115
f 116/116/116 115/115/115 117/117/117
f 115/115/115 118/118/118 117/117/117
f 117/117/117 118/118/118 119/119/119
f 120/120/120 117/117/117 119/119/119
f 120/120/120 119/119/119 121/121/121
f 119/119/119 122/122/122 121/121/121
f 121/121/121 122/122/122 123/123/123
f 124/124/124 121/121/121 123/123/123
f 124/124/124 123/123/123 125/125/125
f 123/123/123 126/126/126 125/125/125
f 125/125/125 126/126/126 127/127/127
f 128/128/128 125/125/125 127/127/127
f 128/128/128 127/127/127 129/129/129
f 127/127/127 130/130/130 129/129/129
f 129/129/129 130/130/130 131/131/131
f 132/132/132 129/129/129 131/131/131
f 132/132/132 131/131/131 133/133/133
f 131/131/131 134/134/134 133/133/133
f 133/133/133 134/134/134 135/135/135
f 136/136/136 133/133/133 135/135/135
f 139/139/139 138/138/138 137/137/137
f 138/138/138 139/139/139 140/140/140
f 139/139/139 141/141/141 140/140/140
f 139/139/139 142/142/142 141/141/141
f 145/145/145 144/144/144 143/143/143
f 145/145/145 143/143/143 146/146/146
f 147/147/147 145/145/145 146/146/146
f 145/145/145 147/147/147 148/148/148
f 151/151/151 150/150/150 149/149/149
f 152/152/152 151/151/151 149/149/149
f 149/149/149 153/153/153 152/152/152
f 153/153/153 154/154/154 152/152/152
f 154/154/154 153/153/153 155/155/155
f 153/153/153 156/156/156 155/155/155
f 159/159/159 158/158/158 157/157/157
f 160/160/160 159/159/159 157/157/157
f 160/160/160 161/161/161 159/159/159
f 161/161/161 162/162/162 159/159/159
f 161/161/161 163/163/163 162/162/162
f 163/163/163 164/164/164 162/162/162
f 167/167/167 166/166/166 165/165/165
f 166/166/166 167/167/167 168/168/168
f 169/169/169 166/166/166 168/168/168
f 170/170/170 166/166/166 169/169/169
f 173/173/173 172/172/172 171/171/171
f 171/171/171 172/172/172 174/174/174
f 172/172/172 175/175/175 174/174/174
f 175/175/175 172/172/172 176/176/176
f 179/179/179 178/178/178 177/177/177
f 178/178/178 180/180/180 177/177/177
f 181/181/181 177/177/177 180/180/180
f 182/182/182 181/181/181 180/180/180
f 181/181/181 182/182/182 183/183/183
f 184/184/184 181/181/181 183/183/183
f 187/187/187 186/186/186 185/185/185
f 186/186/186 188/188/188 185/185/185
f 189/189/189 188/188/188 186/186/186
f 190/190/190 189/189/189 186/186/186
f 191/191/191 189/189/189 190/190/190
f 192/192/192 191/191/191 190/190/190
f 195/195/195 194/194/194 193/193/193
f 193/193/193 194/194/194 196/196/196
f 197/197/197 193/193/193 196/196/196
f 196/196/196 198/198/198 197/197/197
f 198/198/198 199/199/199 197/197/197
f 199/199/199 198/198/198 200/200/200
f 201/201/201 199/199/199 200/200/200
f 200/200/200 202/202/202 201/201/201
f 205/205/205 204/204/204 203/203/203
f 206/206/206 205/205/205 203/203/203
f 207/207/207 206/206/206 203/203/203
f 208/208/208 206/206/206 207/207/207
f 209/209/209 208/208/208 207/207/207
f 210/210/210 208/208/208 209/209/209
f 211/211/211 210/210/210 209/209/209
f 210/210/210 211/211/211 212/212/212
f 215/215/215 214/214/214 213/213/213
f 216/216/216 213/213/213 214/214/214
f 217/217/217 216/216/216 214/214/214
f 218/218/218 216/216/216 217/217/217
f 219/219/219 218/218/218 217/217/217
f 220/220/220 218/218/218 219/219/219
f 221/221/221 220/220/220 219/219/219
f 222/222/222 220/220/220 221/221/221
f 221/221/221 223/223/223 222/222/222
f 222/222/222 223/223/223 224/224/224
f 224/224/224 225/225/225 222/222/222
f 222/222/222 225/225/225 226/226/226
f 227/227/227 222/222/222 226/226/226
f 228/228/228 225/225/225 224/224/224
f 225/225/225 228/228/228 226/226/226
f 224/224/224 229/229/229 228/228/228
f 229/229/229 230/230/230 228/228/228
f 230/230/230 231/231/231 228/228/228
f 231/231/231 230/230/230 232/232/232
f 233/233/233 231/231/231 232/232/232
f 232/232/232 234/234/234 233/233/233
f 234/234/234 235/235/235 233/233/233
f 235/235/235 234/234/234 236/236/236
f 237/237/237 235/235/235 236/236/236
f 236/236/236 238/238/238 237/237/237
f 228/228/228 239/239/239 226/226/226
f 227/227/227 226/226/226 240/240/240
f 240/240/240 226/226/226 239/239/239
f 241/241/241 227/227/227 240/240/240
f 242/242/242 240/240/240 239/239/239
f 243/243/243 241/241/241 240/240/240
f 243/243/243 240/240/240 242/242/242
f 246/246/246 245/245/245 244/244/244
f 247/247/247 246/246/246 244/244/244
f 246/246/246 247/247/247 248/248/248
f 249/249/249 246/246/246 248/248/248
f 250/250/250 249/249/249 248/248/248
f 253/253/253 252/252/252 251/251/251
f 254/254/254 251/251/251 252/252/252
f 255/255/255 254/254/254 252/252/252
f 255/255/255 256/256/256 254/254/254
f 256/256/256 257/257/257 254/254/254
f 260/260/260 259/259/259 258/258/258
f 260/260/260 258/258/258 261/261/261
f 258/258/258 262/262/262 261/261/261
f 263/263/263 261/261/261 262/262/262
f 264/264/264 263/263/263 262/262/262
f 263/263/263 264/264/264 265/265/265
f 264/264/264 266/266/266 265/265/265
f 267/267/267 265/265/265 266/266/266
f 270/270/270 269/269/269 268/268/268
f 269/269/269 271/271/271 268/268/268
f 271/271/271 272/272/272 268/268/268
f 271/271/271 273/273/273 272/272/272
f 273/273/273 274/274/274 272/272/272
f 273/273/273 275/275/275 274/274/274
f 275/275/275 276/276/276 274/274/274
f 276/276/276 275/275/275 277/277/277
f 280/280/280 279/279/279 278/278/278
f 278/278/278 281/281/281 280/280/280
f 281/281/281 282/282/282 280/280/280
f 281/281/281 283/283/283 282/282/282
f 283/283/283 284/284/284 282/282/282
f 283/283/283 285/285/285 284/284/284
f 285/285/285 286/286/286 284/284/284
f 285/285/285 287/287/287 286/286/286
f 288/288/288 286/286/286 287/287/287
f 288/288/288 287/287/287 289/289/289
f 290/290/290 289/289/289 287/287/287
f 290/290/290 287/287/287 291/291/291
f 287/287/287 292/292/292 291/291/291
f 290/290/290 293/293/293 289/289/289
f 293/293/293 290/290/290 291/291/291
f 294/294/294 289/289/289 293/293/293
f 295/295/295 294/294/294 293/293/293
f 296/296/296 295/295/295 293/293/293
f 295/295/295 296/296/296 297/297/297
f 296/296/296 298/298/298 297/297/297
f 299/299/299 297/297/297 298/298/298
f 300/300/300 299/299/299 298/298/298
f 299/299/299 300/300/300 301/301/301
f 300/300/300 302/302/302 301/301/301
f 303/303/303 301/301/301 302/302/302
f 304/304/304 293/293/293 291/291/291
f 291/291/291 305/305/305 304/304/304
f 305/305/305 306/306/306 304/304/304
f 291/291/291 292/292/292 305/305/305
f 305/305/305 307/307/307 306/306/306
f 292/292/292 308/308/308 305/305/305
f 308/308/308 307/307/307 305/305/305
f 311/311/311 310/310/310 309/309/309
f 310/310/310 312/312/312 309/309/309
f 312/312/312 310/310/310 313/313/313
f 310/310/310 314/314/314 313/313/313
f 314/314/314 315/315/315 313/313/313
f 318/318/318 317/317/317 316/316/316
f 316/316/316 319/319/319 318/318/318
f 319/319/319 320/320/320 318/318/318
f 321/321/321 320/320/320 319/319/319
f 322/322/322 321/321/321 319/319/319
f 325/325/325 324/324/324 323/323/323
f 326/326/326 325/325/325 323/323/323
f 326/326/326 323/323/323 327/327/327
f 328/328/328 326/326/326 327/327/327
f 328/328/328 327/327/327 329/329/329
f 330/330/330 328/328/328 329/329/329
f 330/330/330 329/329/329 331/331/331
f 332/332/332 330/330/330 331/331/331
f 331/331/331 333/333/333 332/332/332
f 333/333/333 334/334/334 332/332/332
f 334/334/334 333/333/333 335/335/335
f 338/338/338 337/337/337 336/336/336
f 336/336/336 337/337/337 339/339/339
f 337/337/337 340/340/340 339/339/339
f 339/339/339 340/340/340 341/341/341
f 342/342/342 339/339/339 341/341/341
f 342/342/342 341/341/341 343/343/343
f 344/344/344 342/342/342 343/343/343
f 344/344/344 343/343/343 345/345/345
f 346/346/346 344/344/344 345/345/345
f 346/346/346 345/345/345 347/347/347
f 348/348/348 346/346/346 347/347/347
f 351/351/351 350/350/350 349/349/349
f 352/352/352 351/351/351 349/349/349
f 355/355/355 354/354/354 353/353/353
f 354/354/354 356/356/356 353/353/353
f 353/353/353 356/356/356 357/357/357
f 358/358/358 353/353/353 357/357/357
f 361/361/361 360/360/360 359/359/359
f 360/360/360 362/362/362 359/359/359
f 359/359/359 362/362/362 363/363/363
f 359/359/359 363/363/363 364/364/364
f 363/363/363 365/365/365 364/364/364
f 362/362/362 366/366/366 363/363/363
f 366/366/366 362/362/362 367/367/367
f 362/362/362 360/360/360 368/368/368
f 362/362/362 368/368/368 367/367/367
f 360/360/360 369/369/369 368/368/368
f 370/370/370 367/367/367 368/368/368
f 371/371/371 370/370/370 368/368/368
f 374/374/374 373/373/373 372/372/372
f 375/375/375 374/374/374 372/372/372
f 378/378/378 377/377/377 376/376/376
f 379/379/379 378/378/378 376/376/376
f 382/382/382 381/381/381 380/380/380
f 383/383/383 382/382/382 380/380/380
f 386/386/386 385/385/385 384/384/384
f 385/385/385 387/387/387 384/384/384
f 387/387/387 385/385/385 388/388/388
f 385/385/385 389/389/389 388/388/388
f 392/392/392 391/391/391 390/390/390
f 393/393/393 392/392/392 390/390/390
f 396/396/396 395/395/395 394/394/394
f 397/397/397 396/396/396 394/394/394
f 400/400/400 399/399/399 398/398/398
f 399/399/399 401/401/401 398/398/398
f 402/402/402 398/398/398 401/401/401
f 403/403/403 402/402/402 401/401/401
f 402/402/402 403/403/403 404/404/404
f 405/405/405 402/402/402 404/404/404
f 405/405/405 404/404/404 406/406/406
f 404/404/404 407/407/407 406/406/406
f 410/410/410 409/409/409 408/408/408
f 411/411/411 409/409/409 410/410/410
f 412/412/412 409/409/409 411/411/411
f 413/413/413 409/409/409 412/412/412
f 416/416/416 415/415/415 414/414/414
f 417/417/417 416/416/416 414/414/414
f 417/417/417 414/414/414 418/418/418
f 419/419/419 417/417/417 418/418/418
f 419/419/419 418/418/418 420/420/420
f 418/418/418 421/421/421 420/420/420
f 420/420/420 421/421/421 422/422/422
f 421/421/421 423/423/423 422/422/422
f 426/426/426 425/425/425 424/424/424
f 427/427/427 426/426/426 424/424/424
f 424/424/424 428/428/428 427/427/427
f 428/428/428 429/429/429 427/427/427
f 427/427/427 429/429/429 430/430/430
f 431/431/431 427/427/427 430/430/430
f 426/426/426 427/427/427 431/431/431
f 432/432/432 426/426/426 431/431/431
f 435/435/435 434/434/434 433/433/433
f 434/434/434 436/436/436 433/433/433
f 434/434/434 437/437/437 436/436/436
f 437/437/437 438/438/438 436/436/436
f 441/441/441 440/440/440 439/439/439
f 442/442/442 441/441/441 439/439/439
f 441/441/441 442/442/442 443/443/443
f 442/442/442 444/444/444 443/443/443
f 447/447/447 446/446/446 445/445/445
f 448/448/448 447/447/447 445/445/445
f 451/451/451 450/450/450 449/449/449
f 452/452/452 451/451/451 449/449/449
f 452/452/452 449/449/449 453/453/453
f 449/449/449 454/454/454 453/453/453
f 457/457/457 456/456/456 455/455/455
f 458/458/458 457/457/457 455/455/455
f 461/461/461 460/460/460 459/459/459
f 462/462/462 461/461/461 459/459/459
f 465/465/465 464/464/464 463/463/463
f 466/466/466 465/465/465 463/463/463
f 466/466/466 463/463/463 467/467/467
f 463/463/463 468/468/468 467/467/467
f 471/471/471 470/470/470 469/469/469
f 472/472/472 471/471/471 469/469/469
f 472/472/472 469/469/469 473/473/473
f 473/473/473 469/469/469 474/474/474
f 475/475/475 473/473/473 474/474/474
f 476/476/476 472/472/472 473/473/473
f 472/472/472 476/476/476 477/477/477
f 471/471/471 472/472/472 478/478/478
f 478/478/478 472/472/472 477/477/477
f 479/479/479 471/471/471 478/478/478
f 477/477/477 480/480/480 478/478/478
f 480/480/480 481/481/481 478/478/478
f 484/484/484 483/483/483 482/482/482
f 485/485/485 484/484/484 482/482/482
f 488/488/488 487/487/487 486/486/486
f 489/489/489 488/488/488 486/486/486
f 492/492/492 491/491/491 490/490/490
f 493/493/493 492/492/492 490/490/490
f 496/496/496 495/495/495 494/494/494
f 497/497/497 496/496/496 494/494/494
f 496/496/496 497/497/497 498/498/498
f 499/499/499 496/496/496 498/498/498
f 502/502/502 501/501/501 500/500/500
f 503/503/503 502/502/502 500/500/500
f 506/506/506 505/505/505 504/504/504
f 507/507/507 506/506/506 504/504/504
f 510/510/510 509/509/509 508/508/508
f 511/511/511 510/510/510 508/508/508
f 508/508/508 512/512/512 511/511/511
f 512/512/512 513/513/513 511/511/511
f 513/513/513 512/512/512 514/514/514
f 512/512/512 515/515/515 514/514/514
f 514/514/514 515/515/515 516/516/516
f 517/517/517 514/514/514 516/516/516
f 520/520/520 519/519/519 518/518/518
f 520/520/520 521/521/521 519/519/519
f 520/520/520 522/522/522 521/521/521
f 520/520/520 523/523/523 522/522/522
f 526/526/526 525/525/525 524/524/524
f 525/525/525 527/527/527 524/524/524
f 524/524/524 527/527/527 528/528/528
f 527/527/527 529/529/529 528/528/528
f 528/528/528 529/529/529 530/530/530
f 531/531/531 528/528/528 530/530/530
f 531/531/531 530/530/530 532/532/532
f 533/533/533 531/531/531 532/532/532
f 536/536/536 535/535/535 534/534/534
f 535/535/535 537/537/537 534/534/534
f 538/538/538 534/534/534 537/537/537
f 539/539/539 538/538/538 537/537/537
f 539/539/539 537/537/537 540/540/540
f 537/537/537 541/541/541 540/540/540
f 537/537/537 535/535/535 541/541/541
f 535/535/535 542/542/542 541/541/541
f 545/545/545 544/544/544 543/543/543
f 546/546/546 545/545/545 543/543/543
f 547/547/547 545/545/545 546/546/546
f 548/548/548 547/547/547 546/546/546
f 551/551/551 550/550/550 549/549/549
f 550/550/550 552/552/552 549/549/549
f 552/552/552 550/550/550 553/553/553
f 554/554/554 552/552/552 553/553/553
f 557/557/557 556/556/556 555/555/555
f 558/558/558 557/557/557 555/555/555
f 561/561/561 560/560/560 559/559/559
f 560/560/560 562/562/562 559/559/559
f 559/559/559 562/562/562 563/563/563
f 564/564/564 559/559/559 563/563/563
f 567/567/567 566/566/566 565/565/565
f 568/568/568 567/567/567 565/565/565
f 571/571/571 570/570/570 569/569/569
f 571/571/571 569/569/569 572/572/572
f 569/569/569 573/573/573 572/572/572
f 574/574/574 573/573/573 569/569/569
f 575/575/575 574/574/574 569/569/569
f 570/570/570 576/576/576 569/569/569
f 569/569/569 576/576/576 575/575/575
f 570/570/570 577/577/577 576/576/576
f 576/576/576 578/578/578 575/575/575
f 577/577/577 579/579/579 576/576/576
f 578/578/578 576/576/576 580/580/580
f 576/576/576 579/579/579 580/580/580
f 583/583/583 582/582/582 581/581/581
f 581/581/581 582/582/582 584/584/584
f 585/585/585 581/581/581 584/584/584
f 585/585/585 586/586/586 581/581/581
f 586/586/586 587/587/587 581/581/581
f 588/588/588 583/583/583 581/581/581
f 588/588/588 581/581/581 587/587/587
f 589/589/589 583/583/583 588/588/588
f 590/590/590 588/588/588 587/587/587
f 591/591/591 589/589/589 588/588/588
f 588/588/588 590/590/590 592/592/592
f 591/591/591 588/588/588 592/592/592
